<svg width="20" height="20" fill="none" xmlns="http://www.w3.org/2000/svg"><path d="M0 15.844v2.75c0 .756.563 1.375 1.25 1.375v-5.5c-.688 0-1.25.619-1.25 1.375zm17.5-1.719c0-.584-.406-1.031-.938-1.031h-1.875c-.53 0-.937.447-.937 1.031v.344h-7.5v-.344c0-.584-.406-1.031-.938-1.031H3.438c-.53 0-.937.447-.937 1.031v.344h-.625v5.5h16.25v-5.5H17.5v-.344zm-6.875 3.094h-.313v.687c0 .207-.124.344-.312.344s-.313-.137-.313-.344v-.687h-.312c-.188 0-.313-.138-.313-.344 0-.206.126-.344.313-.344h1.25c.188 0 .313.138.313.344 0 .206-.126.344-.313.344zm8.125-2.75v5.5c.688 0 1.25-.619 1.25-1.375v-2.75c0-.756-.563-1.375-1.25-1.375zM5.313 7.25c0-2.853 2.093-5.156 4.687-5.156 2.594 0 4.688 2.303 4.688 5.156v5.156h1.874V7.25c0-3.987-2.937-7.219-6.562-7.219-3.625 0-6.563 3.232-6.563 7.219v5.156h1.876V7.25z" opacity=".85" fill="#C60F28"/></svg>