<svg width="20" height="20" fill="none" xmlns="http://www.w3.org/2000/svg"><path d="M13.57 5.714a2.866 2.866 0 002.858-2.857A2.866 2.866 0 0013.571 0a2.866 2.866 0 00-2.857 2.857 2.866 2.866 0 002.857 2.857zm0-4.285c.787 0 1.43.642 1.43 1.428 0 .786-.643 1.429-1.43 1.429a1.433 1.433 0 01-1.428-1.429c0-.786.643-1.428 1.429-1.428zM3.929 12.143C1.786 12.143 0 13.928 0 16.07S1.786 20 3.929 20c2.142 0 3.928-1.786 3.928-3.929s-1.786-3.928-3.928-3.928zm0 5.714c-1 0-1.786-.786-1.786-1.786s.786-1.785 1.786-1.785 1.785.785 1.785 1.785c0 1-.785 1.786-1.785 1.786zm12.143-5.714c-2.143 0-3.929 1.785-3.929 3.928S13.93 20 16.072 20 20 18.214 20 16.071s-1.785-3.928-3.928-3.928zm0 5.714c-1 0-1.786-.786-1.786-1.786s.786-1.785 1.786-1.785 1.785.785 1.785 1.785c0 1-.785 1.786-1.785 1.786zm-2.001-10.5a.69.69 0 00-1 0 .69.69 0 000 1L14.5 9.786c.071.071.143.143.286.143l2.142.714c.357.143.786-.072.929-.429.143-.357-.072-.785-.429-.928l-2-.643-1.357-1.286z" fill="#C60F28"/><path d="M12.07 8.643c.572-.929.358-2.143-.57-2.786l-.644-.5c-.928-.786-2.285-.571-3 .357v.072l-1 1.357S5.428 8.714 5.428 10c0 .5.357 1.143.786 1.571l1.5 1.5c.071.072.142.215.214.357l.428 3c.143.858 1 1.5 1.858 1.358a1.67 1.67 0 001.357-1.358l.428-2.857c.072-.571 0-1.071-.357-1.5L11 11.143c-.143-.215-.143-.5 0-.786l1.072-1.714z" fill="#C60F28"/></svg>