<svg width="20" height="20" fill="none" xmlns="http://www.w3.org/2000/svg"><g opacity=".85" fill="#C60F28"><path d="M8.241 11.069l-2.896 1.172c.207.414.448.828.758 1.173l2.207-2.207c-.034-.035-.034-.104-.069-.138zm-.275-.724H4.862c.035.448.104.862.242 1.241L8 10.414c-.034 0-.034-.035-.034-.07zm2.034 0a.345.345 0 100-.69.345.345 0 000 .69zM8.793 11.69l-2.207 2.207c.345.31.759.551 1.173.758L8.93 11.76c-.034-.035-.103-.035-.138-.07zm-.827-2.138L5.069 8.379a5.268 5.268 0 00-.241 1.242H7.93c.035 0 .035-.035.035-.07zm.448 5.379c.413.138.827.207 1.24.241V12.07h-.102l-1.138 2.862zm3.172-9.862a5.268 5.268 0 00-1.241-.241V7.93h.103l1.138-2.862zm-.379 3.241l2.207-2.207c-.345-.31-.759-.551-1.172-.758L11.069 8.24c.035.035.103.035.138.07zm-2.276-.069L7.76 5.345c-.414.207-.828.448-1.173.758L8.793 8.31c.035-.034.104-.034.138-.069zm-.621.552L6.103 6.586c-.31.345-.551.759-.758 1.173L8.24 8.93c.035-.034.035-.103.07-.138zm1.345-.827V4.862c-.448.035-.862.104-1.241.241L9.586 8c0-.034.034-.034.069-.034z"/><path d="M10 3.448A6.549 6.549 0 003.448 10 6.549 6.549 0 0010 16.552 6.549 6.549 0 0016.552 10 6.549 6.549 0 0010 3.448zm0 12.414A5.857 5.857 0 014.138 10 5.857 5.857 0 0110 4.138 5.857 5.857 0 0115.862 10 5.857 5.857 0 0110 15.862z"/><path d="M12.034 9.655h3.104c-.035-.448-.104-.862-.242-1.241L12 9.586c.034 0 .034.035.034.07z"/><path d="M19.655 9.31h-.758c-.173 0-.31-.138-.345-.31a10.742 10.742 0 00-.31-1.517c-.035-.173.034-.345.206-.414l.587-.241a.416.416 0 00.172-.173.383.383 0 000-.276l-.242-.517a.415.415 0 00-.172-.172c-.069-.035-.172-.035-.276 0l-.586.207c-.172.069-.345 0-.448-.138a8.757 8.757 0 00-.793-1.173c-.104-.138-.104-.345.034-.448l.448-.448a.333.333 0 000-.483l-.413-.414a.333.333 0 00-.483 0l-.414.448a.325.325 0 01-.448.035 9.944 9.944 0 00-1.173-.793c-.172-.07-.207-.276-.138-.414l.242-.586a.383.383 0 000-.276.415.415 0 00-.173-.173l-.517-.24c-.069-.035-.172-.035-.276 0a.415.415 0 00-.172.172l-.242.586c-.068.172-.24.241-.413.207-.483-.138-1-.242-1.518-.31-.172-.035-.31-.173-.31-.346V.345c0-.207-.138-.345-.345-.345h-.69c-.206 0-.344.138-.344.345v.758c0 .173-.138.31-.31.345-.518.07-1.035.173-1.518.31-.172.07-.345-.034-.414-.206l-.24-.586A.416.416 0 006.69.793a.383.383 0 00-.276 0l-.517.241a.416.416 0 00-.173.173.383.383 0 000 .276l.173.586c.069.172 0 .345-.138.448a8.751 8.751 0 00-1.173.793c-.138.104-.345.104-.448-.034l-.448-.448a.333.333 0 00-.483 0l-.414.379a.333.333 0 000 .483l.448.448c.138.138.138.31.035.448a9.946 9.946 0 00-.793 1.173c-.07.172-.276.207-.414.138l-.586-.242a.383.383 0 00-.276 0 .416.416 0 00-.173.173l-.24.517c-.035.069-.035.172 0 .276a.415.415 0 00.172.172l.586.241c.172.07.241.242.207.414-.138.483-.242 1-.31 1.518-.035.172-.173.31-.346.31H.345c-.207 0-.345.138-.345.345v.69c0 .206.138.344.345.344h.758c.173 0 .31.138.345.31.07.518.173 1.035.31 1.518.035.172-.034.345-.206.414l-.586.24a.416.416 0 00-.173.173.383.383 0 000 .276l.241.517a.416.416 0 00.173.173.383.383 0 00.276 0l.586-.173c.172-.069.345 0 .448.138.242.414.483.793.793 1.173.104.138.104.345-.034.448l-.448.448a.333.333 0 000 .483l.413.414a.333.333 0 00.483 0l.448-.448a.325.325 0 01.449-.035c.345.276.758.552 1.172.793.138.104.207.276.138.448l-.241.587c-.035.069-.035.172 0 .276a.415.415 0 00.172.172l.517.241c.07.035.173.035.276 0a.416.416 0 00.173-.172l.241-.586c.069-.138.172-.207.31-.207h.104c.483.138 1 .241 1.517.31.172.035.31.173.31.345v.724c0 .207.138.345.345.345h.69c.207 0 .345-.138.345-.345v-.758c0-.173.138-.31.31-.345a10.741 10.741 0 001.517-.31c.173-.07.345.034.414.206l.241.587a.416.416 0 00.173.172.383.383 0 00.276 0l.517-.242a.415.415 0 00.172-.172c.035-.069.035-.172 0-.276l-.207-.586c-.069-.172 0-.345.138-.448a8.756 8.756 0 001.173-.793c.138-.104.345-.104.448.034l.448.448a.333.333 0 00.483 0l.414-.413a.333.333 0 000-.483l-.448-.414a.325.325 0 01-.035-.448 9.93 9.93 0 00.793-1.173c.104-.138.276-.207.448-.138l.587.242a.383.383 0 00.276 0 .415.415 0 00.172-.173l.241-.517c.035-.069.035-.172 0-.276a.416.416 0 00-.172-.172l-.586-.242c-.173-.068-.242-.24-.207-.413.138-.483.241-1 .31-1.518.035-.172.173-.31.345-.31h.724c.207 0 .345-.138.345-.345v-.69c0-.24-.138-.379-.345-.379zM10 17.241A7.24 7.24 0 012.759 10C2.759 6 6 2.759 10 2.759c4 0 7.241 3.241 7.241 7.241 0 4-3.241 7.241-7.241 7.241z"/><path d="M12.034 10.448l2.897 1.173a5.27 5.27 0 00.241-1.242H12.07c-.035 0-.035.035-.035.07zm-.344-1.655c.034.035.068.07.068.104l2.897-1.173c-.207-.414-.448-.827-.759-1.172L11.69 8.793zm0 2.414l2.206 2.207c.31-.345.552-.759.759-1.173l-2.897-1.172c-.034.034-.034.103-.068.138zM11.38 10c0-.759-.621-1.38-1.38-1.38-.759 0-1.38.621-1.38 1.38 0 .759.621 1.38 1.38 1.38.759 0 1.38-.621 1.38-1.38zM10 11.034A1.016 1.016 0 018.966 10c0-.586.448-1.034 1.034-1.034.586 0 1.034.448 1.034 1.034 0 .586-.448 1.034-1.034 1.034zm1.07.725l1.171 2.896c.414-.207.828-.448 1.173-.758l-2.207-2.207c-.035.034-.103.034-.138.069zm-.725.275v3.104c.448-.035.862-.104 1.241-.241L10.414 12c0 .034-.035.034-.07.034z"/></g></svg>