<svg width="20" height="23" fill="none" xmlns="http://www.w3.org/2000/svg"><g opacity=".85"><path d="M16.588 15.794c-.14 0-.28 0-.42.046l-.795-7.803h1.075c.373 0 .7-.327.7-.7a.719.719 0 00-.7-.702h-3.925a.719.719 0 00-.701.701c0 .374.327.701.7.701h1.356l.98 8.318a3 3 0 00-1.214 1.775H7.569s-.934 0-1.495-.514a3.027 3.027 0 00-2.757-1.822c-1.682 0-2.99 1.355-2.99 3.037s1.355 3.037 2.99 3.037c1.402 0 2.617-.98 2.944-2.336h7.43c.327 1.308 1.495 2.336 2.943 2.336a3.031 3.031 0 003.038-3.037c0-1.682-1.449-3.037-3.084-3.037zM3.318 20.42c-.889 0-1.59-.701-1.59-1.636 0-.934.701-1.635 1.59-1.635.653 0 1.167.374 1.448.934H3.317c-.374 0-.7.328-.7.701 0 .374.326.701.7.701h1.449c-.28.561-.795.935-1.449.935zm13.27 0c-.888 0-1.589-.701-1.589-1.636 0-.934.701-1.635 1.589-1.635s1.635.7 1.635 1.635-.747 1.636-1.635 1.636z" fill="#C60F28"/><path d="M12.709 14.299a2.558 2.558 0 00-.935-2.617l-.887-.701 1.168-2.757 1.028 1.075c.187.187.42.28.607.28a.79.79 0 00.468-.14l1.915-1.262c.094-.046-.046 0 .234-.233.327-.28 0-.888 0-.888-.234-.42-.794-.514-1.168-.234l-1.262.841s-1.495-1.588-1.822-1.962c-.374-.374-.748-.561-1.355-.561h-.654c-.515 0-.935.327-1.122.794L7.662 9.532c-.233.701-.046 1.496.561 1.963l.187.14-.327.748c-.094.233-.28.327-.514.327H4.485c-.56 0-1.028.467-1.028 1.028 0 .56.467 1.028 1.028 1.028h3.084c1.075 0 2.01-.654 2.43-1.589l.093-.233.42.327c.188.14.234.373.234.56l-.84 3.785c-.047.28.653.748 1.308.748.7.047 1.495-4.065 1.495-4.065zm.515-9.019a2.612 2.612 0 002.616-2.617C15.84 1.215 14.672 0 13.224 0a2.612 2.612 0 00-2.617 2.617c0 1.448 1.168 2.663 2.617 2.663zm0-3.831c.654 0 1.168.514 1.168 1.168 0 .654-.514 1.168-1.168 1.168a1.157 1.157 0 01-1.168-1.168c0-.654.514-1.168 1.168-1.168zm3.365 20.606a3.411 3.411 0 100-6.822 3.411 3.411 0 000 6.822z" fill="#C60F28"/><path d="M16.589 20.28a1.635 1.635 0 100-3.271 1.635 1.635 0 000 3.27z" fill="#fff"/><path d="M3.411 22.055a3.411 3.411 0 100-6.822 3.411 3.411 0 000 6.822z" fill="#C60F28"/><path d="M3.411 20.28a1.635 1.635 0 100-3.271 1.635 1.635 0 000 3.27z" fill="#fff"/></g></svg>