<svg width="20" height="22" fill="none" xmlns="http://www.w3.org/2000/svg"><path d="M19.89 9.676a.707.707 0 00-.628-.627l-1.402-.222a8.42 8.42 0 00-.775-1.881l.812-1.144a.778.778 0 000-.886c-.259-.332-.554-.664-.849-.996-.295-.332-.664-.59-.996-.849a.778.778 0 00-.886 0l-1.144.812a8.42 8.42 0 00-1.882-.775l-.221-1.402c-.074-.332-.295-.59-.628-.628-.848-.11-1.77-.11-2.62 0a.837.837 0 00-.627.628l-.221 1.402a8.42 8.42 0 00-1.882.775L4.797 3.07a.778.778 0 00-.886 0c-.332.258-.664.554-.996.849a7.53 7.53 0 00-.849.996.778.778 0 000 .886l.812 1.144a8.42 8.42 0 00-.775 1.881L.701 9.05a.837.837 0 00-.627.627C.037 10.12 0 10.562 0 11.005c0 .442.037.885.074 1.328.037.332.295.59.627.627l1.402.222a8.42 8.42 0 00.775 1.882l-.812 1.143a.778.778 0 000 .886c.259.332.554.664.886.997.295.295.627.59.996.848a.778.778 0 00.886 0l1.144-.812a8.42 8.42 0 001.882.775l.221 1.402c.037.333.332.554.627.628.406.074.886.074 1.292.074.443 0 .886-.037 1.291-.074a.707.707 0 00.628-.628l.221-1.402a8.42 8.42 0 001.882-.775l1.144.812a.778.778 0 00.886 0c.332-.258.664-.553.996-.848.295-.296.59-.665.849-.997a.778.778 0 000-.886l-.775-1.18a8.42 8.42 0 00.775-1.882l1.402-.222a.787.787 0 00.627-.627c.074-.443.074-.849.074-1.291 0-.443-.037-.886-.11-1.329zm-6.975 5.461l-1.033-1.033c-.406-.406-.96-.59-1.55-.553-.443.037-.886.073-1.328-.037a3.294 3.294 0 01-1.587-.96c-.443-.48.295-1.18.775-.7l.074.073c.073.074.184.11.295.11.664-.073 1.218-.258 1.66-.553l.074-.073c.295-.443.48-.997.554-1.661a.419.419 0 00-.111-.295l-.037-.11c-.48-.48.221-1.219.701-.776.406.37.701.812.886 1.365.147.48.184.997.11 1.513a1.78 1.78 0 00.554 1.513l1.07 1.07a3.953 3.953 0 01-1.107 1.107zm1.55-1.697l-.96-.96a1.19 1.19 0 01-.332-.959 3.93 3.93 0 00-1.107-3.358 3.921 3.921 0 00-3.8-1.033c-.148.037-.222.148-.259.258-.037.148 0 .259.111.37l2.066 2.066c-.073.443-.184.812-.368 1.07-.296.184-.665.295-1.108.369L6.642 9.196c-.074-.11-.221-.147-.369-.11-.148.037-.221.147-.258.258-.37 1.365.037 2.841 1.033 3.8a3.93 3.93 0 003.358 1.108 1.15 1.15 0 01.96.332l.922.922c-.701.332-1.476.554-2.288.554-2.804 0-5.092-2.288-5.092-5.055A5.102 5.102 0 0110 5.912a5.103 5.103 0 015.092 5.093 5.947 5.947 0 01-.627 2.435z" fill="#C60F28" opacity=".85"/></svg>