<svg width="20" height="20" viewBox="0 0 20 20" fill="none" xmlns="http://www.w3.org/2000/svg">
<path d="M13.5709 5.71429C15.1423 5.71429 16.428 4.42857 16.428 2.85714C16.428 1.28571 15.1423 0 13.5709 0C11.9995 0 10.7137 1.28571 10.7137 2.85714C10.7137 4.42857 11.9995 5.71429 13.5709 5.71429ZM13.5709 1.42857C14.3566 1.42857 14.9995 2.07143 14.9995 2.85714C14.9995 3.64286 14.3566 4.28571 13.5709 4.28571C12.7852 4.28571 12.1423 3.64286 12.1423 2.85714C12.1423 2.07143 12.7852 1.42857 13.5709 1.42857Z" fill="#C60F28"/>
<path d="M3.92857 12.1428C1.78571 12.1428 0 13.9285 0 16.0714C0 18.2143 1.78571 20 3.92857 20C6.07143 20 7.85714 18.2143 7.85714 16.0714C7.85714 13.9285 6.07143 12.1428 3.92857 12.1428ZM3.92857 17.8571C2.92857 17.8571 2.14286 17.0714 2.14286 16.0714C2.14286 15.0714 2.92857 14.2857 3.92857 14.2857C4.92857 14.2857 5.71429 15.0714 5.71429 16.0714C5.71429 17.0714 4.92857 17.8571 3.92857 17.8571Z" fill="#C60F28"/>
<path d="M16.0716 12.1428C13.9288 12.1428 12.1431 13.9285 12.1431 16.0714C12.1431 18.2143 13.9288 20 16.0716 20C18.2145 20 20.0002 18.2143 20.0002 16.0714C20.0002 13.9285 18.2145 12.1428 16.0716 12.1428ZM16.0716 17.8571C15.0716 17.8571 14.2859 17.0714 14.2859 16.0714C14.2859 15.0714 15.0716 14.2857 16.0716 14.2857C17.0716 14.2857 17.8574 15.0714 17.8574 16.0714C17.8574 17.0714 17.0716 17.8571 16.0716 17.8571Z" fill="#C60F28"/>
<path d="M14.0712 7.35711C13.7855 7.07139 13.3569 7.07139 13.0712 7.35711C12.7855 7.64282 12.7855 8.07139 13.0712 8.35711L14.4998 9.78568C14.5712 9.85711 14.6426 9.92854 14.7855 9.92854L16.9284 10.6428C17.2855 10.7857 17.7141 10.5714 17.8569 10.2143C17.9998 9.85711 17.7855 9.42854 17.4284 9.28568L15.4284 8.64282L14.0712 7.35711Z" fill="#C60F28"/>
<path d="M12.0707 8.64282C12.6421 7.71425 12.4279 6.49996 11.4993 5.8571L10.8564 5.3571C9.92786 4.57139 8.57071 4.78567 7.85643 5.71425C7.85643 5.71425 7.85643 5.71425 7.85643 5.78567L6.85643 7.14282C6.85643 7.14282 5.42786 8.71424 5.42786 9.99996C5.42786 10.5 5.785 11.1428 6.21357 11.5714L7.71357 13.0714C7.785 13.1428 7.85643 13.2857 7.92786 13.4285L8.35643 16.4285C8.49928 17.2857 9.35643 17.9285 10.2136 17.7857C10.9279 17.6428 11.4279 17.1428 11.5707 16.4285L11.9993 13.5714C12.0707 13 11.9993 12.5 11.6421 12.0714L10.9993 11.1428C10.8564 10.9285 10.8564 10.6428 10.9993 10.3571L12.0707 8.64282Z" fill="#C60F28"/>
</svg>
