<svg width="20" height="20" viewBox="0 0 20 20" fill="none" xmlns="http://www.w3.org/2000/svg">
<g opacity="0.85">
<path d="M7.66724 2.5C8.00057 3.5 8.91724 4.16667 10.0006 4.16667C11.0839 4.16667 12.0006 3.5 12.3339 2.5H13.3339C14.2506 2.5 15.4172 3.08333 15.9172 3.91667L18.3339 7.5L15.5006 9.75L15.0006 9.16667V16.6667C15.0006 17.0833 14.5839 17.5 14.1672 17.5H5.8339C5.3339 17.5 5.00057 17.0833 5.00057 16.6667V9.16667L4.5839 9.75L1.66724 7.5L4.0839 3.91667C4.5839 3.08333 5.75057 2.5 6.66724 2.5H7.66724ZM12.5006 7.5C12.0006 7.5 11.6672 7.83333 11.6672 8.33333C11.6672 8.83333 12.0006 9.16667 12.5006 9.16667C13.0006 9.16667 13.3339 8.83333 13.3339 8.33333C13.3339 7.83333 13.0006 7.5 12.5006 7.5Z" fill="#C60F28"/>
</g>
</svg>
