<svg width="20" height="22" viewBox="0 0 20 22" fill="none" xmlns="http://www.w3.org/2000/svg">
<g opacity="0.85">
<path d="M19.8893 9.67617C19.8524 9.34407 19.5941 9.08577 19.262 9.04887L17.8598 8.82746C17.6753 8.16326 17.417 7.53595 17.0849 6.94555L17.8967 5.80163C18.0812 5.54333 18.0812 5.17433 17.8967 4.91603C17.6384 4.58392 17.3432 4.25182 17.048 3.91972C16.7528 3.58761 16.3838 3.32931 16.0517 3.07101C15.7934 2.88651 15.4244 2.88651 15.1661 3.07101L14.0221 3.88282C13.4317 3.55071 12.8044 3.29241 12.1402 3.10791L11.9188 1.70569C11.845 1.37359 11.6236 1.11529 11.2915 1.07839C10.4428 0.967686 9.5203 0.967686 8.67159 1.07839C8.37638 1.15219 8.11808 1.37359 8.04428 1.70569L7.82288 3.10791C7.15867 3.29241 6.53137 3.55071 5.94096 3.88282L4.79705 3.07101C4.53875 2.88651 4.16974 2.88651 3.91144 3.07101C3.57934 3.32931 3.24723 3.62451 2.91513 3.91972C2.61993 4.21492 2.32472 4.54702 2.06642 4.91603C1.88192 5.17433 1.88192 5.54333 2.06642 5.80163L2.87823 6.94555C2.54613 7.53595 2.28782 8.16326 2.10332 8.82746L0.701107 9.04887C0.369004 9.12267 0.147601 9.38097 0.0738007 9.67617C0.0369004 10.119 0 10.5618 0 11.0046C0 11.4474 0.0369004 11.8902 0.0738007 12.333C0.110701 12.6651 0.369004 12.9234 0.701107 12.9603L2.10332 13.1817C2.28782 13.8459 2.54613 14.4732 2.87823 15.0636L2.06642 16.2075C1.88192 16.4658 1.88192 16.8348 2.06642 17.0931C2.32472 17.4253 2.61993 17.7574 2.95203 18.0895C3.24723 18.3847 3.57934 18.6799 3.94834 18.9382C4.20664 19.1227 4.57565 19.1227 4.83395 18.9382L5.97786 18.1264C6.56827 18.4585 7.19557 18.7168 7.85978 18.9013L8.08118 20.3035C8.11808 20.6356 8.41328 20.857 8.70849 20.9308C9.11439 21.0046 9.5941 21.0046 10 21.0046C10.4428 21.0046 10.8856 20.9677 11.2915 20.9308C11.6236 20.8939 11.8819 20.6356 11.9188 20.3035L12.1402 18.9013C12.8044 18.7168 13.4317 18.4585 14.0221 18.1264L15.1661 18.9382C15.4244 19.1227 15.7934 19.1227 16.0517 18.9382C16.3838 18.6799 16.7159 18.3847 17.048 18.0895C17.3432 17.7943 17.6384 17.4253 17.8967 17.0931C18.0812 16.8348 18.0812 16.4658 17.8967 16.2075L17.1218 15.0267C17.4539 14.4363 17.7122 13.809 17.8967 13.1448L19.2989 12.9234C19.631 12.8496 19.8524 12.6282 19.9262 12.2961C20 11.8533 20 11.4474 20 11.0046C20 10.5618 19.9631 10.119 19.8893 9.67617ZM12.9151 15.1374L11.8819 14.1042C11.476 13.6983 10.9225 13.5138 10.3321 13.5507C9.8893 13.5876 9.44649 13.6245 9.00369 13.5138C8.33948 13.3293 7.82288 12.9972 7.41697 12.5544C6.97417 12.0747 7.71218 11.3736 8.19188 11.8533L8.26568 11.9271C8.33948 12.0009 8.45018 12.0378 8.56089 12.0378C9.22509 11.964 9.7786 11.7795 10.2214 11.4843C10.2583 11.4474 10.2952 11.4105 10.2952 11.4105C10.5904 10.9677 10.7749 10.4142 10.8487 9.74997C10.8487 9.63927 10.8118 9.52857 10.738 9.45477L10.7011 9.34407C10.2214 8.86437 10.9225 8.12636 11.4022 8.56916C11.8081 8.93817 12.1033 9.38097 12.2878 9.93448C12.4354 10.4142 12.4723 10.9308 12.3985 11.4474C12.3247 12.0009 12.5461 12.5913 12.952 12.9603L14.0221 14.0304C13.7269 14.4732 13.3579 14.8422 12.9151 15.1374ZM14.4649 13.44L13.5055 12.4806C13.2472 12.2223 13.1365 11.8533 13.1734 11.5212C13.3579 10.3035 12.952 9.04887 12.0664 8.16326C11.0701 7.16695 9.631 6.76104 8.26568 7.13005C8.11808 7.16695 8.04428 7.27765 8.00738 7.38835C7.97048 7.53595 8.00738 7.64665 8.11808 7.75735L10.1845 9.82377C10.1107 10.2666 10 10.6356 9.8155 10.8939C9.5203 11.0784 9.15129 11.1891 8.70849 11.2629L6.64207 9.19647C6.56827 9.08577 6.42066 9.04887 6.27306 9.08577C6.12546 9.12267 6.05166 9.23337 6.01476 9.34407C5.64576 10.7094 6.05166 12.1854 7.04797 13.1448C7.93358 14.0304 9.18819 14.4363 10.4059 14.2518C10.7749 14.2149 11.107 14.3256 11.3653 14.5839L12.2878 15.5064C11.5867 15.8385 10.8118 16.0599 10 16.0599C7.19557 16.0599 4.90775 13.7721 4.90775 11.0046C4.90775 8.20016 7.19557 5.91234 10 5.91234C12.8044 5.91234 15.0923 8.20016 15.0923 11.0046C15.0554 11.8902 14.8339 12.702 14.4649 13.44Z" fill="#C60F28"/>
</g>
</svg>
