<svg id="google" viewBox="0 0 16 16" fill="none" xmlns="http://www.w3.org/2000/svg"><path d="M15.866 8.167c0-.535-.067-1.004-.134-1.54H8.167V9.64h4.352c-.2 1.004-.736 1.808-1.607 2.41v2.009h2.611c1.473-1.406 2.343-3.415 2.343-5.892Z" fill="#4285F4"/><path d="M8.168 16c2.142 0 3.95-.736 5.288-1.941l-2.61-2.009a4.931 4.931 0 0 1-2.745.804c-2.076 0-3.883-1.406-4.486-3.348H.937v2.076C2.343 14.192 5.021 16 8.168 16Z" fill="#34A853"/><path d="M3.682 9.506c-.134-.468-.268-1.004-.268-1.54 0-.535.067-1.07.268-1.54V4.353H1.004a8.004 8.004 0 0 0-.87 3.615c0 1.272.335 2.544.87 3.615l2.678-2.076Z" fill="#FBBC05"/><path d="M8.167 3.147c1.205 0 2.21.401 3.08 1.205l2.276-2.277C12.117.803 10.309 0 8.167 0 5.021 0 2.343 1.808 1.004 4.418l2.678 2.076c.602-1.942 2.41-3.347 4.485-3.347Z" fill="#EA4335"/></svg>
