<svg id="mono" viewBox="0 0 15 17" xmlns="http://www.w3.org/2000/svg"><path d="M14.846 9.541c-.111.226-.206.465-.338.678-.419.676-.98 1.181-1.752 1.42a1.972 1.972 0 0 1-1.016.05c-.427-.09-.721-.36-.902-.748-.246-.534-.24-1.085-.05-1.63.22-.63.566-1.18 1.079-1.614.485-.411 1.034-.66 1.681-.678.711-.023 1.123.424 1.308.877.125.307.16.627.137.957-.002.04-.002.084-.002.124l-.145.564ZM7.392 8.652c.788.204 1.38.679 1.864 1.313.57.745.93 1.588 1.242 2.462.247.685.463 1.379.516 2.113.033.457.003.906-.239 1.313-.239.398-.614.569-1.059.594a1.938 1.938 0 0 1-1.252-.37c-.437-.31-.864-.64-1.303-.943-.762-.526-1.623-.638-2.522-.566-.526.04-1.051.091-1.58.109-.373.013-.746-.046-1.082-.226-.723-.391-.99-1.344-.617-2.08.617-1.214 1.489-2.205 2.576-3.005.866-.637 1.849-.889 2.92-.792.178.01.356.05.536.078ZM12.807 4.695c-.285.96-.755 1.73-1.595 2.215-.221.127-.47.213-.716.282-.623.173-1.113-.061-1.489-.554-.355-.467-.464-1.016-.411-1.585.107-1.092.581-2.003 1.45-2.687.343-.269.737-.424 1.173-.467.486-.048.884.122 1.197.48.424.488.556 1.072.487 1.704-.025.221-.07.442-.096.612ZM7.758 4.53c-.117.43-.4.965-.922 1.339-.427.305-.897.401-1.392.198-.328-.135-.574-.386-.785-.666-.472-.624-.64-1.343-.622-2.113.015-.61.147-1.19.447-1.727.183-.327.442-.586.764-.78.562-.335 1.11-.307 1.63.09.603.457.89 1.092 1.01 1.818.088.561.055 1.115-.13 1.841ZM3.689 7.776c-.168.6-.343 1.008-.719 1.306-.475.376-1.031.416-1.547.099C.598 8.673.18 7.9.04 6.966c-.106-.714 0-1.402.369-2.032a1.43 1.43 0 0 1 2.186-.358c1.021.907 1.313 2.045 1.095 3.2Z"/></svg>