<svg id="privat-1" viewBox="0 0 18 17" fill="none" xmlns="http://www.w3.org/2000/svg"><g clip-path="url(#a)"><path d="M9.977.477a7.989 7.989 0 0 0-4.521 1.395l4.549 6.795L3.14 12.7a8.03 8.03 0 0 0 6.837 3.823A8.016 8.016 0 0 0 18 8.5 8.016 8.016 0 0 0 9.977.477Z" fill="#FFCF03"/><path d="M8.023 8.346 3.53 1.621A7.99 7.99 0 0 0 0 8.263c0 1.507.419 2.916 1.13 4.116l6.893-4.033Z" fill="#00B001"/></g><defs><clipPath id="a"><path fill="#fff" transform="translate(0 .477)" d="M0 0h18v16.047H0z"/></clipPath></defs></svg>