<svg id="promo-code" viewBox="0 0 40 59" fill="none" xmlns="http://www.w3.org/2000/svg"><path d="M.008 15.32v12.917H13.03V15.32H.008Zm1.86 1.845h9.301v9.227h-9.3v-9.227Z" fill="#232323"/><path d="M3.729 19.01h5.58v5.536H3.73V19.01Z" fill="#232323"/><path d="M14.89 15.32v3.69h1.86v-1.845h1.86v-1.846h-3.72ZM14.89 20.732v3.691h1.86v-3.69h-1.86Z" fill="#C60F28"/><path d="M29.771 19.01h5.581v5.536h-5.58V19.01Z" fill="#232323"/><path d="M9.31 31.805v3.69h3.72V33.65h-1.86v-1.845H9.31ZM11.17 29.96v1.845h3.72v-1.846h-3.72ZM13.03 35.496v3.69h3.72v-1.845h-1.86v-1.845h-1.86Z" fill="#C60F28"/><path d="M3.729 44.723h5.58v5.536H3.73v-5.536Z" fill="#232323"/><path d="M3.729 31.805v1.845h1.86v1.846h1.86v-3.691h-3.72ZM7.45 29.96v1.845h1.86v-1.846H7.45ZM.008 33.65v5.537h1.86V37.34h1.86v-1.845h-1.86V33.65H.008ZM16.75 39.187v1.845h3.72v-1.845h-3.72ZM9.31 39.187V37.34h1.86v1.846H9.31Z" fill="#C60F28"/><path d="M26.051 35.496v1.845h-5.58v1.846h1.86v3.69h-1.86v1.846h1.86v1.845h1.86v1.846h1.86v-1.846h5.58v-3.69h1.86v-1.846h-1.86v-3.69h-3.72v-1.846h-1.86Zm3.597 3.69v5.537h-5.581v-5.536h5.58Z" fill="#232323"/><path d="M16.75 33.65v3.691h1.86v-3.69h-1.86Z" fill="#C60F28"/><path d="M25.927 42.877v-1.845h1.86v1.845h-1.86Z" fill="#232323"/><path d="M27.911 35.496V33.65h1.86v1.846h-1.86ZM18.61 44.723v1.845h-3.72v3.691h1.86v-1.845h3.72v-3.691h-1.86ZM3.729 37.341v1.846h3.72V37.34h-3.72ZM22.33 26.269v3.69h1.861v-3.69h-1.86ZM31.632 33.65v3.691h1.86v-1.845h1.86V33.65h-3.72ZM29.771 29.96v3.69h1.86v-3.69h-1.86ZM33.368 41.032v-1.845h1.86v1.845h-1.86ZM31.632 50.26v1.845h-1.86v1.845h3.72v-3.69h-1.86ZM14.89 41.032v3.69h3.72v-1.845h-1.86v-1.845h-1.86ZM20.47 52.105v1.845h3.72v-1.846h-3.72ZM35.228 42.877v1.846h-1.86v1.845h3.72v-1.845h1.86v-1.846h-3.72ZM33.492 48.414v1.845h3.72v-1.845h-3.72ZM37.212 50.26v1.845h-1.86v1.845h3.72v-3.69h-1.86ZM31.632 48.414v-1.846h1.86v1.846h-1.86ZM20.47 15.32v3.69h1.86v-1.968h1.86v-1.846c-1.24.123-2.48.123-3.72.123ZM37.088 48.414v-1.846h1.86v1.846h-1.86ZM37.212 31.805v3.69h1.86v-3.69h-1.86Z" fill="#C60F28"/><path d="M35.228 35.496v3.69h1.86v1.846h1.86v-3.69h-1.86v-1.846h-1.86ZM33.492 29.96v1.845h3.72v-1.846h-3.72ZM20.47 24.423v1.846h1.86v-1.846h-1.86ZM14.89 52.105v1.845h3.72v-1.846h-3.72ZM18.61 52.105v-1.846h1.86v1.846h-1.86ZM18.61 24.423v-1.845h1.86v1.845h-1.86ZM7.45 35.496v1.845h1.86v-1.845H7.45ZM16.75 19.01v1.722h3.72v-1.845c-1.24.123-2.48.123-3.72.123ZM14.89 33.65v-1.845h1.86v1.845h-1.86ZM22.33 50.26v-1.846h1.861v1.845h-1.86ZM.008 29.96v1.845h3.72v-1.846H.009Z" fill="#C60F28"/><path d="M26.051 15.32v12.917h13.022V15.32H26.05Zm1.86 1.845h9.301v9.227h-9.3v-9.227ZM.008 41.032V53.95H13.03V41.032H.008Zm1.86 1.845h9.301v9.227h-9.3v-9.227Z" fill="#232323"/><path d="M16.75 24.546v1.846h-1.86v3.69h1.86v-1.968h1.86v-3.69l-1.86.122ZM18.61 28.114v5.536h1.86v-1.845h1.86v-1.846h-1.86v-1.845h-1.86ZM22.33 19.01v5.536h1.861V19.01h-1.86ZM20.47 33.65v1.846h3.72V33.65h-3.72ZM24.191 29.96v3.69h1.86v-1.845h1.86v-1.846h-3.72ZM24.191 50.26v1.845h1.86v1.845h1.86v-3.69h-3.72ZM27.911 48.414v1.845h3.72v-1.845h-3.72Z" fill="#C60F28"/><path d="M11.278 1.029c-.771.176-1.365.765-1.78 1.59-.832 1.59-.89 3.062-.297 4.298.593 1.178 1.662 2.062 2.908 2.768 1.603.942 3.325 1.59 4.868 2.18-3.68.647-6.649.352-8.785-.295-2.553-.766-3.562-1.473-3.859-1.767-.297-.353-.95-.353-1.306 0-.297.353-.178 1.001.238 1.237.356.235 1.602 1.295 4.452 2.12 2.79.824 6.885 1.178 11.931-.236.178.059 2.73.53 5.936.354 3.325-.177 7.302-1.06 9.735-4.123.297-.353.238-.942-.118-1.178-.357-.294-.95-.235-1.188.118-1.958 2.474-5.46 3.357-8.488 3.534-1.306.059-2.374 0-3.384-.06.831-.53 1.188-.647 2.256-1.53 1.01-.825 1.959-1.767 2.553-2.827.593-1.06.83-2.415.118-3.592-.475-.766-1.306-1.178-2.196-1.178-.89.059-1.721.471-2.493 1.178-1.247 1.177-2.197 3.356-2.909 6.183-.89-1.708-1.78-3.298-2.671-4.652-1.01-1.59-2.137-3.004-3.384-3.77-.296-.176-.712-.352-1.068-.411-.297 0-.653-.06-1.069.059Zm1.247 1.884c.772.471 1.9 1.767 2.85 3.239.949 1.413 1.78 3.003 2.433 4.24-1.662-.648-3.384-1.296-4.808-2.12-1.069-.648-1.9-1.355-2.256-2.061-.356-.707-.415-1.531.238-2.768.296-.589.593-.766.712-.824.178 0 .475 0 .83.294Zm13.119 1.59c.356.589.296 1.119-.12 1.884-.415.766-1.246 1.59-2.136 2.356-1.01.824-1.365 1.001-2.137 1.472.593-2.59 1.484-4.475 2.374-5.3.594-.53 1.069-.706 1.425-.765.238 0 .415.059.594.353Z" fill="#232323"/></svg>