<svg id="scooters" viewBox="0 0 54 59" xmlns="http://www.w3.org/2000/svg"><g opacity=".85"><path d="M44.626 42.25c-.375 0-.75 0-1.125.125L41.376 21.5h2.875c1 0 1.875-.875 1.875-1.875s-.875-1.875-1.875-1.875h-10.5c-1 0-1.875.875-1.875 1.875S32.75 21.5 33.75 21.5h3.625L40 43.75c-1.625 1.125-2.75 2.75-3.25 4.75H20.5s-2.5 0-4-1.375c-1.25-2.875-4.126-4.875-7.376-4.875-4.5 0-8 3.625-8 8.125s3.625 8.125 8 8.125c3.75 0 7-2.625 7.875-6.25h19.876c.875 3.5 4 6.25 7.875 6.25 4.5 0 8.125-3.625 8.125-8.125S49 42.25 44.626 42.25Zm-35.5 12.375c-2.376 0-4.25-1.875-4.25-4.375s1.874-4.375 4.25-4.375c1.75 0 3.125 1 3.875 2.5H9.125c-1 0-1.875.875-1.875 1.875s.875 1.875 1.875 1.875h3.876c-.75 1.5-2.125 2.5-3.876 2.5Zm35.5 0c-2.375 0-4.25-1.875-4.25-4.375s1.875-4.375 4.25-4.375S49 47.75 49 50.25s-2 4.375-4.375 4.375Z"/><path d="M34.243 38.25a6.843 6.843 0 0 0-2.5-7l-2.375-1.875L32.493 22l2.75 2.875c.5.5 1.125.75 1.625.75s.875-.125 1.25-.375l5.125-3.375c.25-.125-.125 0 .625-.625.875-.75 0-2.375 0-2.375-.625-1.125-2.125-1.375-3.125-.625l-3.375 2.25s-4-4.25-4.875-5.25c-1-1-2-1.5-3.625-1.5h-1.75c-1.375 0-2.5.875-3 2.125L20.743 25.5c-.625 1.875-.125 4 1.5 5.25l.5.375-.875 2c-.25.625-.75.875-1.375.875h-8.25c-1.5 0-2.75 1.25-2.75 2.75s1.25 2.75 2.75 2.75h8.25c2.875 0 5.375-1.75 6.5-4.25l.25-.625 1.125.875c.5.375.625 1 .625 1.5l-2.25 10.125c-.125.75 1.75 2 3.5 2 1.875.125 4-10.875 4-10.875ZM35.617 14.125c3.875 0 7-3.125 7-7S39.492 0 35.617 0s-7 3.125-7 7 3.125 7.125 7 7.125Zm0-10.25A3.095 3.095 0 0 1 38.742 7a3.095 3.095 0 0 1-3.125 3.125A3.095 3.095 0 0 1 32.492 7a3.095 3.095 0 0 1 3.125-3.125ZM44.629 59a9.125 9.125 0 1 0 0-18.25 9.125 9.125 0 0 0 0 18.25Z"/><path d="M44.623 54.25a4.375 4.375 0 1 0 0-8.75 4.375 4.375 0 0 0 0 8.75ZM9.372 59a9.125 9.125 0 1 0 0-18.25 9.125 9.125 0 0 0 0 18.25Z"/><path d="M9.376 54.25a4.375 4.375 0 1 0 0-8.75 4.375 4.375 0 0 0 0 8.75Z"/></g></svg>
