<svg id="sort" viewBox="0 0 16 14" xmlns="http://www.w3.org/2000/svg">
    <path d="M10.8651 13.649C11.1981 13.9706 11.7263 13.9706 12.0594 13.649L15.2174 10.6059C15.3028 10.5284 15.3717 10.4346 15.4202 10.3301C15.4686 10.2255 15.4956 10.1122 15.4995 9.99702C15.5034 9.88182 15.4841 9.76701 15.4428 9.6594C15.4015 9.55178 15.3391 9.45355 15.2591 9.37052C15.1792 9.28749 15.0834 9.22136 14.9774 9.17603C14.8714 9.13071 14.7574 9.10712 14.6421 9.10667C14.5269 9.10621 14.4127 9.1289 14.3063 9.17338C14.2 9.21786 14.1037 9.28324 14.0231 9.36563L12.3235 11.0032V0.971049C12.3235 0.742624 12.2327 0.523555 12.0712 0.362034C11.9097 0.200513 11.6906 0.109772 11.4622 0.109772C11.2338 0.109772 11.0147 0.200513 10.8532 0.362034C10.6917 0.523555 10.6009 0.742624 10.6009 0.971049V11.0032L8.90135 9.36563C8.82074 9.28324 8.72441 9.21786 8.61808 9.17338C8.51174 9.1289 8.39755 9.10621 8.28229 9.10667C8.16702 9.10712 8.05302 9.13071 7.94704 9.17603C7.84106 9.22136 7.74526 9.28749 7.6653 9.37052C7.58535 9.45355 7.52288 9.55178 7.48158 9.6594C7.44029 9.76701 7.42102 9.88182 7.42491 9.99702C7.4288 10.1122 7.45578 10.2255 7.50424 10.3301C7.55271 10.4346 7.62167 10.5284 7.70704 10.6059L10.8651 13.649ZM4.60645 0.362413C4.44496 0.201124 4.22605 0.11053 3.99781 0.11053C3.76957 0.11053 3.55066 0.201124 3.38917 0.362413L0.231157 3.52043C0.0790214 3.6837 -0.00380268 3.89965 0.000134184 4.12277C0.00407104 4.3459 0.0944614 4.55879 0.252262 4.7166C0.410063 4.8744 0.622954 4.96479 0.846083 4.96872C1.06921 4.97266 1.28516 4.88984 1.44843 4.7377L3.13653 3.0496V13.0289C3.13653 13.2574 3.22727 13.4764 3.38879 13.6379C3.55031 13.7995 3.76938 13.8902 3.99781 13.8902C4.22623 13.8902 4.4453 13.7995 4.60682 13.6379C4.76834 13.4764 4.85909 13.2574 4.85909 13.0289V3.0496L6.54719 4.7377C6.71046 4.88984 6.92641 4.97266 7.14953 4.96872C7.37266 4.96479 7.58555 4.8744 7.74336 4.7166C7.90116 4.55879 7.99155 4.3459 7.99548 4.12277C7.99942 3.89965 7.9166 3.6837 7.76446 3.52043L4.60645 0.362413Z"/>
</svg>
