<svg id="star" viewBox="0 0 12 13" xmlns="http://www.w3.org/2000/svg"><path d="M11.948 4.963c-.104-.383-.417-.654-.793-.677l-2.794-.27c-.188-.023-.334-.136-.417-.34L6.838.902C6.692.517 6.38.29 6.004.29a.908.908 0 0 0-.855.61L4.044 3.677c-.083.203-.23.316-.417.338l-2.795.271c-.375.045-.667.294-.792.677-.104.384 0 .79.27 1.061L2.418 8.01a.55.55 0 0 1 .167.52l-.626 2.956c-.083.406.063.79.355 1.038a.893.893 0 0 0 1.022.045l2.398-1.557a.444.444 0 0 1 .522 0l2.398 1.557a.857.857 0 0 0 1.022-.068c.313-.248.438-.631.354-1.038l-.605-2.956a.534.534 0 0 1 .167-.52l2.086-1.963c.292-.27.396-.677.27-1.06Z"/></svg>
