<svg id="tools" viewBox="0 0 60 59" xmlns="http://www.w3.org/2000/svg"><path d="M59.16 25.597a2.084 2.084 0 0 0-1.85-1.85l-4.134-.653a24.824 24.824 0 0 0-2.285-5.549l2.394-3.373a2.293 2.293 0 0 0 0-2.611c-.762-.98-1.633-1.959-2.503-2.938-.87-.98-1.959-1.741-2.938-2.503a2.293 2.293 0 0 0-2.611 0L41.86 8.514c-1.741-.98-3.59-1.74-5.55-2.285l-.652-4.134c-.218-.98-.87-1.741-1.85-1.85a30.594 30.594 0 0 0-7.725 0c-.87.217-1.632.87-1.85 1.85l-.652 4.134a24.827 24.827 0 0 0-5.55 2.285L14.658 6.12a2.293 2.293 0 0 0-2.611 0c-.98.762-1.959 1.632-2.938 2.503-.87.87-1.74 1.85-2.502 2.938a2.293 2.293 0 0 0 0 2.611L9 17.545c-.979 1.74-1.74 3.59-2.284 5.55l-4.135.652c-.98.218-1.632.98-1.85 1.85-.109 1.305-.217 2.61-.217 3.917 0 1.305.108 2.61.217 3.917.109.979.87 1.74 1.85 1.85l4.135.652A24.823 24.823 0 0 0 9 41.483l-2.393 3.372a2.293 2.293 0 0 0 0 2.612 31.67 31.67 0 0 0 2.611 2.937c.87.87 1.85 1.741 2.938 2.503.761.544 1.85.544 2.611 0l3.373-2.394c1.741.98 3.59 1.741 5.55 2.285l.652 4.135c.109.979.98 1.632 1.85 1.85C27.389 59 28.803 59 30 59c1.306 0 2.611-.109 3.808-.218.98-.108 1.741-.87 1.85-1.85l.653-4.134a24.828 24.828 0 0 0 5.549-2.285l3.373 2.394c.762.544 1.85.544 2.611 0 .98-.762 1.959-1.632 2.938-2.503.87-.87 1.74-1.958 2.503-2.937a2.293 2.293 0 0 0 0-2.612L51 41.373c.979-1.74 1.74-3.59 2.285-5.549l4.134-.652c.98-.218 1.632-.87 1.85-1.85.217-1.306.217-2.503.217-3.808 0-1.306-.108-2.612-.326-3.917ZM38.596 41.7l-3.047-3.047c-1.197-1.197-2.829-1.74-4.57-1.632-1.305.109-2.611.218-3.917-.109-1.958-.544-3.482-1.523-4.678-2.829-1.306-1.414.87-3.481 2.285-2.067l.217.218c.218.217.544.326.87.326 1.96-.217 3.591-.762 4.897-1.632l.218-.218c.87-1.305 1.414-2.937 1.631-4.896 0-.326-.108-.653-.326-.87l-.109-.327c-1.414-1.414.653-3.59 2.068-2.285 1.197 1.088 2.067 2.394 2.611 4.026.435 1.415.544 2.938.326 4.461-.217 1.632.436 3.373 1.633 4.461l3.155 3.156a11.658 11.658 0 0 1-3.264 3.264Zm4.57-5.005-2.83-2.83c-.761-.76-1.087-1.849-.979-2.828.544-3.59-.652-7.29-3.264-9.901-2.938-2.938-7.181-4.135-11.207-3.047-.435.109-.653.435-.761.762-.11.435 0 .761.326 1.088l6.093 6.093c-.218 1.305-.544 2.393-1.088 3.155-.87.544-1.959.87-3.264 1.088l-6.093-6.093c-.218-.326-.653-.435-1.088-.326-.436.108-.653.435-.762.761-1.088 4.026.109 8.378 3.047 11.207a11.587 11.587 0 0 0 9.9 3.265c1.089-.11 2.068.217 2.83.979l2.72 2.72c-2.067.98-4.352 1.632-6.746 1.632-8.27 0-15.015-6.746-15.015-14.906 0-8.27 6.746-15.016 15.015-15.016 8.27 0 15.015 6.746 15.015 15.016a17.536 17.536 0 0 1-1.85 7.18Z"/></svg>