<svg width="100" height="35" fill="none" xmlns="http://www.w3.org/2000/svg"><g clip-path="url(#a)"><path d="M15.253 17.178H9.641a.875.875 0 00-.874.873v4.615c0 .482.392.873.874.873h5.612a.875.875 0 00.873-.873v-4.615a.875.875 0 00-.873-.873zm-.873 4.615h-3.884v-2.869h3.884v2.87zm10.033-4.615H18.8a.875.875 0 00-.873.873v4.615c0 .482.392.873.873.873h5.613a.875.875 0 00.873-.873v-4.615a.875.875 0 00-.873-.873zm-.873 4.615h-3.884v-2.869h3.884v2.87zm10.05-4.615h-5.613a.875.875 0 00-.873.873v4.615c0 .482.392.873.873.873h5.613a.875.875 0 00.873-.873v-4.615a.875.875 0 00-.873-.873zm-.873 4.615h-3.885v-2.869h3.885v2.87z" fill="#C60F28"/><path d="M43.086 10.354L40.02 1.106A.878.878 0 0039.2.5H4.01a.84.84 0 00-.82.606L.107 10.354a.78.78 0 00-.106.41c-.018.48.392.873.873.89 1.194.036 2.334.482 3.171 1.283.125.125.268.25.41.375l-.018 19.315c0 .231.09.445.25.623.16.16.392.25.623.25h32.573a.875.875 0 00.873-.873V13.294c.125-.107.267-.214.374-.339a4.926 4.926 0 013.207-1.3.898.898 0 00.856-.891c0-.143-.054-.286-.107-.41zM37.01 31.736H6.184v-3.51h30.808l.018 3.51zm0-5.239H6.184L6.2 14.22c.482.143.98.232 1.497.232a5.136 5.136 0 003.653-1.515c1.728-1.728 4.74-1.71 6.575.018a5.268 5.268 0 003.67 1.497 5.268 5.268 0 003.671-1.497c1.8-1.728 4.811-1.728 6.575-.018a5.106 5.106 0 003.653 1.515 5.5 5.5 0 001.515-.232v12.277z" fill="#464C57"/></g><g clip-path="url(#b)"><path d="M87.192 7.583v-4.25s-.708-1.416-1.416-1.416c-.709 0-11.334 5.666-29.75 5.666" stroke="#464C57" stroke-width="2" stroke-miterlimit="10" stroke-linecap="round" stroke-linejoin="round"/><path d="M87.192 13.25H56.026c-.85 0-1.417.567-1.417 1.417v17c0 .85.567 1.416 1.417 1.416h31.166c.85 0 1.417-.566 1.417-1.416v-17c0-.85-.567-1.417-1.417-1.417z" stroke="#464C57" stroke-width="2" stroke-miterlimit="10" stroke-linecap="round"/><path d="M87.192 28.833a2.833 2.833 0 110 5.667 2.833 2.833 0 010-5.667zm-31.166 0a2.833 2.833 0 110 5.667 2.833 2.833 0 010-5.667zm0-17a2.833 2.833 0 110 5.667 2.833 2.833 0 010-5.667zm31.166 0a2.833 2.833 0 110 5.667 2.833 2.833 0 010-5.667zm-4.25-8.5S84.217.5 85.776.5a2.842 2.842 0 012.833 2.833 2.842 2.842 0 01-2.833 2.834 2.842 2.842 0 01-2.834-2.834zm0 18.417a1.417 1.417 0 110 2.833 1.417 1.417 0 010-2.833zm-22.666 0a1.417 1.417 0 110 2.833 1.417 1.417 0 010-2.833z" fill="#464C57"/><path d="M68.067 17.5h7.084c1.275 1.133 2.125 2.975 2.125 4.958 0 3.542-2.55 6.375-5.667 6.375S65.942 26 65.942 22.458c0-1.983.85-3.825 2.125-4.958z" fill="#C60F28"/><path d="M88.609 9h-2.834V6.167h2.834V9z" fill="#464C57"/></g><defs><clipPath id="a"><path fill="#fff" transform="translate(0 .5)" d="M0 0h43.192v33H0z"/></clipPath><clipPath id="b"><path fill="#fff" transform="matrix(1 0 0 -1 53.192 34.5)" d="M0 0h36.833v34H0z"/></clipPath></defs></svg>