<svg width="102" height="18" fill="none" xmlns="http://www.w3.org/2000/svg"><path d="M12 16.944L14.7.364h9.422c1.947 0 3.328.44 4.082 1.319s1.068 1.884.88 3.014c-.126.817-.503 1.57-1.131 2.261-.628.691-1.508 1.13-2.575 1.382 2.323.502 3.328 1.821 2.951 3.831-.188 1.256-.816 2.324-1.82 3.329-1.006.942-2.89 1.444-5.653 1.444H12zm6.909-10.237h2.638c.627 0 1.13-.126 1.444-.44.314-.314.503-.628.565-.942.126-.942-.44-1.381-1.696-1.381h-2.512l-.44 2.763zm-1.068 6.532h2.763c.691 0 1.194-.126 1.57-.44.377-.314.566-.628.629-1.005.062-.377-.063-.753-.314-1.068-.252-.314-.817-.502-1.633-.502H18.28l-.44 3.015zm26.631-.251l-.629 3.956H29.901L32.6.364h13.943l-.628 3.83h-8.353l-.44 2.387h6.783l-.565 3.706h-6.783l-.44 2.7h8.354zm5.526 3.956h-4.522L54.018.364h6.03l3.076 16.58h-5.59l-1.82-11.807-5.716 11.807zm22.547.251c-2.575 0-4.585-.753-6.03-2.323-1.381-1.57-1.884-3.643-1.444-6.218.377-2.45 1.507-4.522 3.329-6.155C70.284.929 72.608.112 75.434.112c2.575 0 4.585.754 5.966 2.261 1.382 1.508 1.885 3.58 1.445 6.092-.44 2.638-1.57 4.71-3.517 6.344-1.947 1.57-4.145 2.386-6.783 2.386zm.628-3.768c.942 0 1.696-.377 2.26-1.13.566-.754 1.006-2.136 1.32-4.083.44-2.889-.189-4.333-1.884-4.333-1.885 0-3.078 1.633-3.58 4.899-.566 3.14.063 4.647 1.884 4.647zM102 7.021l-.502 3.077h-5.025l-.754 4.648h-3.454l.754-4.648h-5.025l.503-3.077h5.024l.754-4.648h3.454l-.754 4.648H102z" fill="#fff"/></svg>