<svg width="146" height="28" fill="none" xmlns="http://www.w3.org/2000/svg"><path d="M0 27.305L4.381.408h15.283c3.158 0 5.4.713 6.622 2.14 1.223 1.425 1.732 3.056 1.426 4.89-.203 1.324-.815 2.547-1.833 3.667-1.02 1.121-2.446 1.834-4.178 2.242 3.77.815 5.4 2.955 4.789 6.215-.306 2.037-1.325 3.77-2.955 5.4-1.63 1.528-4.686 2.343-9.17 2.343H0zm11.207-16.607h4.28c1.018 0 1.833-.204 2.343-.713.51-.51.815-1.02.917-1.529.203-1.528-.713-2.241-2.751-2.241H11.92l-.713 4.483zM9.475 21.294h4.483c1.12 0 1.936-.204 2.547-.713.611-.51.917-1.02 1.02-1.63.101-.612-.103-1.223-.51-1.733-.408-.509-1.325-.815-2.65-.815h-4.177l-.713 4.89zm43.201-.408l-1.02 6.419H29.04L33.419.408h22.619l-1.019 6.214h-13.55l-.714 3.872H51.76l-.917 6.011H39.838l-.713 4.381h13.55zm8.964 6.419h-7.335L68.162.408h9.78l4.993 26.897h-9.068L70.912 8.15l-9.271 19.154zm36.576.407c-4.178 0-7.438-1.222-9.781-3.77-2.242-2.546-3.057-5.909-2.344-10.086.612-3.973 2.446-7.335 5.4-9.984C94.548 1.324 98.317 0 102.902 0c4.177 0 7.438 1.223 9.679 3.668 2.242 2.445 3.057 5.807 2.344 9.883-.714 4.279-2.548 7.64-5.706 10.29-3.158 2.547-6.724 3.871-11.003 3.871zm1.018-6.113c1.529 0 2.751-.61 3.668-1.834.917-1.222 1.63-3.463 2.14-6.622.713-4.687-.306-7.03-3.057-7.03-3.056 0-4.992 2.649-5.807 7.947-.917 5.094.102 7.54 3.056 7.54zm46.764-10.392l-.816 4.993h-8.15l-1.223 7.539h-5.604l1.223-7.54h-8.151l.815-4.992h8.151l1.223-7.54h5.603l-1.222 7.54h8.151z" fill="#E8112F"/></svg>