<svg width="100" height="35" fill="none" xmlns="http://www.w3.org/2000/svg"><g clip-path="url(#a)"><path d="M6.171 30.186c.38 0 .69-.31.69-.69V17.652c0-.38-.31-.69-.69-.69H3.535c-.387 0-.69.31-.69.69v11.844c0 .38.31.69.69.69H6.17z" fill="#C60F28"/><path d="M34.235 31.339H1.105c-.38 0-.69.31-.69.69v1.788c0 .38.31.69.69.69h33.13c.38 0 .69-.304.69-.69v-1.788a.697.697 0 00-.69-.69z" fill="#464C57"/><path d="M14.72 30.186c.38 0 .691-.31.691-.69V17.652c0-.38-.31-.69-.69-.69h-2.644c-.38 0-.683.31-.683.69v11.844c0 .38.31.69.683.69h2.644zm17.084 0c.38 0 .69-.31.69-.69V17.652c0-.38-.31-.69-.69-.69H29.16c-.38 0-.683.31-.683.69v11.844c0 .38.31.69.683.69h2.644z" fill="#C60F28"/><path d="M34.442 13.09L20.32 1.403c-1.457-1.208-3.845-1.208-5.301 0L.897 13.09c-1.463 1.208-1.104 2.195.794 2.195h31.964c1.89 0 2.243-.98.787-2.195zm-16.773-.65a2.678 2.678 0 01-2.678-2.684 2.68 2.68 0 012.678-2.678 2.676 2.676 0 012.678 2.678 2.678 2.678 0 01-2.678 2.685z" fill="#464C57"/><path d="M23.261 30.186c.38 0 .69-.31.69-.69V17.652c0-.38-.31-.69-.69-.69h-2.643c-.38 0-.69.31-.69.69v11.844c0 .38.31.69.69.69h2.643z" fill="#C60F28"/></g><g clip-path="url(#b)"><path d="M51.339 27.417v-25.5h27v25.5c0 3.116-2.7 5.666-6 5.666" stroke="#464C57" stroke-width="2" stroke-miterlimit="10" stroke-linecap="round" stroke-linejoin="round"/><path d="M66.339 27.417h-19.5c0 3.116 2.7 5.666 6 5.666h19.5c-3.3 0-6-2.55-6-5.666z" stroke="#000" stroke-width="2" stroke-miterlimit="10" stroke-linecap="round" stroke-linejoin="round"/><path d="M63.339 14.667h9m-15 0h3m3 5.666h9m-15 0h3m3-11.333h9m-15 0h3" stroke="#C60F28" stroke-width="2" stroke-miterlimit="10" stroke-linejoin="round"/><path d="M66.339 27.417h-19.5c0 3.116 2.7 5.666 6 5.666h19.5c-3.3 0-6-2.55-6-5.666z" fill="#464C57"/></g><defs><clipPath id="a"><path fill="#fff" transform="translate(0 .5)" d="M0 0h35.339v34H0z"/></clipPath><clipPath id="b"><path fill="#fff" transform="translate(45.339 .5)" d="M0 0h34.5v34H0z"/></clipPath></defs></svg>