<svg width="133" height="48" fill="none" xmlns="http://www.w3.org/2000/svg"><g clip-path="url(#a)" fill-rule="evenodd" clip-rule="evenodd" fill="#ED1C24"><path d="M58.221 8.143h2.798c1.02 0 1.533.509 1.533 1.657v4.072h5.48V9.8c0-1.148.505-1.657 1.655-1.657h2.675v2.675H71.22l-.13.131v11.459h-3.058v-5.73h-5.48v5.73h-3.058V10.949s0-.13-.13-.13H58.22V8.142zm22.165-.255l.069.008v2.938l-.07-.016c-2.29 0-4.076 1.913-4.076 4.334 0 2.544 1.785 4.58 4.077 4.58l.069-.015v2.938l-.07.007c-4.076 0-7.387-3.308-7.387-7.51 0-4.08 3.31-7.264 7.388-7.264z"/><path d="M80.454 7.896l1.418.139c3.364.663 5.901 3.547 5.901 7.117 0 3.67-2.537 6.67-5.901 7.356l-1.418.146v-2.937l1.556-.34c1.502-.694 2.582-2.32 2.582-4.225 0-1.82-1.08-3.347-2.582-3.994l-1.556-.324V7.896zm7.956.247h6.308v2.675H92.74v2.93h1.977v2.545H92.74v3.185c0 .13 0 .13.13.13h1.848v2.8h-3.503c-1.019 0-1.525-.51-1.525-1.658v-9.932h-1.28V8.143z"/><path d="M94.717 8.143h.062c2.805 0 4.46 1.526 4.46 3.824 0 1.396-.636 2.29-1.272 2.93 1.15.51 1.908 1.781 1.908 3.177 0 2.676-2.038 4.334-4.966 4.334h-.192v-2.8h.314c1.02 0 1.664-.64 1.664-1.657 0-1.018-.644-1.658-1.663-1.658h-.314v-2.545h.06c.897 0 1.403-.64 1.403-1.526 0-.895-.506-1.404-1.402-1.404h-.061V8.143zm11.021 0h1.525v4.079a2.445 2.445 0 00-.253 1.018l-1.019 2.93h1.272v2.668h-2.031l-.897 2.297c-.253.887-.758 1.273-1.778 1.273h-1.916v-2.8h.636c.261 0 .261 0 .384-.13l4.077-11.335zm1.526 0h1.533l4.077 11.335c.123.13.123.13.376.13h.513v2.8h-1.786c-1.019 0-1.525-.386-1.785-1.404l-.889-2.166h-2.039V16.17h1.272l-1.012-2.93c0-.386-.13-.764-.26-1.018v-4.08zM58.221 26.48h11.083c1.02 0 1.655.508 1.655 1.657v9.677c0 .123 0 .123.13.123h1.02v2.807h-2.675c-1.15 0-1.655-.509-1.655-1.658v-9.8s0-.131-.13-.131h-5.097v11.59h-3.058v-11.59H58.22v-2.676zm21.911-.256l.061.008v2.938l-.06-.015c-2.3 0-4.078 1.912-4.078 4.333 0 2.545 1.778 4.58 4.077 4.58l.061-.015v2.938l-.06.008c-4.078 0-7.266-3.316-7.266-7.51 0-4.08 3.188-7.264 7.265-7.264zm.062.008l1.464.14c3.426.662 5.863 3.546 5.863 7.116 0 3.67-2.437 6.67-5.863 7.356l-1.464.147v-2.938l1.617-.34c1.526-.693 2.53-2.32 2.53-4.225 0-1.82-1.004-3.346-2.53-3.994l-1.617-.324v-2.938zm7.963.248h2.805c1.02 0 1.525.508 1.525 1.657v9.677c0 .123 0 .123.13.123h3.695V26.48h3.058v11.458h3.694c.13 0 .13 0 .13-.123v-9.677c0-1.149.506-1.658 1.525-1.658h2.805v2.676h-1.149c-.131 0-.131.13-.131.13v9.801c0 1.15-.505 1.658-1.525 1.658H91.085c-1.142 0-1.656-.509-1.656-1.658v-9.8s0-.131-.122-.131h-1.15V26.48zm21.782 0h9.557c1.15 0 1.533.508 1.533 1.526v2.421h-2.805v-1.141c0-.131 0-.131-.13-.131h-1.778v11.59h-3.066v-11.59h-1.778c-.13 0-.13 0-.13.13v1.142h-2.805v-2.421c0-1.018.383-1.527 1.402-1.527zm15.037 0h1.525v4.078c-.13.255-.253.632-.253 1.018l-1.019 2.93h1.272v2.668h-2.038l-.889 2.167c-.253 1.018-.767 1.403-1.786 1.403h-1.909v-2.807h.637c.26 0 .26 0 .383-.123l4.077-11.335z"/><path d="M126.501 26.48h1.525l4.085 11.334c.123.123.123.123.383.123H133v2.807h-1.786c-1.019 0-1.525-.385-1.786-1.403l-.889-2.167h-2.038v-2.668h1.272l-1.019-2.93c0-.386-.123-.763-.253-1.018V26.48zM38.584 14.211c.146-.046.338.046.53.3l8.66 8.529c.506.509.506 1.28 0 1.658l-8.66 8.66c-.192.254-.384.315-.53.238-.145-.077-.237-.3-.237-.624V14.766c0-.316.092-.509.237-.555zM23.77 0h.614l.59.247 8.913 8.913c.383.51.253.895-.383.895H29.81c-.636 0-1.142.509-1.142 1.149v6.616c0 .64-.514 1.149-1.28 1.149h-6.492c-.636 0-1.15-.51-1.15-1.15v-6.615a1.14 1.14 0 00-1.149-1.15H14.65c-.636 0-.766-.385-.383-.894l8.92-8.913L23.77 0zM9.806 14.018c.161.077.26.301.26.625v18.583c0 .324-.099.517-.26.578-.153.062-.375 0-.636-.192L.38 24.698c-.506-.378-.506-1.15 0-1.658l8.79-8.783c.26-.254.483-.316.636-.239zm11.09 14.628h6.492c.766 0 1.28.509 1.28 1.149v7.001c0 .764.506 1.273 1.142 1.273h3.441c.636 0 .89.377.383.763l-8.66 8.782c-.26.255-.575.386-.897.386a1.26 1.26 0 01-.889-.386l-8.66-8.782c-.514-.386-.261-.764.375-.764h3.694c.644 0 1.15-.508 1.15-1.272v-7.001c0-.64.513-1.15 1.15-1.15z"/></g><defs><clipPath id="a"><path fill="#fff" d="M0 0h133v48H0z"/></clipPath></defs></svg>