<svg width="100" height="30" fill="none" xmlns="http://www.w3.org/2000/svg"><path d="M10.978 17.022H0V28h10.978V17.022z" fill="#000"/><path d="M0 0v13.692h2.837c7.648 0 11.471 3.823 11.471 11.471V28H28V0H0zm22.203 5.797v16.406h-2.22c-.987-8.141-6.045-13.199-14.186-14.185v-2.22h16.406z" fill="#5DB12E"/><g clip-path="url(#clip0_8568_14154)"><path d="M56.653 0c-3.13 0-6.052.965-8.452 2.609l8.504 12.704-12.834 7.54C46.505 27.13 51.252 30 56.653 30c8.296 0 15-6.704 15-15s-6.704-15-15-15z" fill="#FFCF03"/><path d="M53 14.713L44.6 2.139A14.938 14.938 0 0038 14.556c0 2.818.783 5.453 2.113 7.696L53 14.713z" fill="#00B001"/></g><defs><clipPath id="clip0_8568_14154"><path fill="#fff" transform="translate(38)" d="M0 0h33.652v30H0z"/></clipPath></defs></svg>