<svg viewBox="0 0 60 59" xmlns="http://www.w3.org/2000/svg"><path d="M.408 46.793v8.138c0 2.238 1.665 4.069 3.7 4.069V42.724c-2.035 0-3.7 1.831-3.7 4.07zm51.785-5.086c0-1.73-1.202-3.052-2.774-3.052h-5.548c-1.573 0-2.775 1.323-2.775 3.052v1.017H18.902v-1.017c0-1.73-1.202-3.052-2.774-3.052h-5.549c-1.572 0-2.774 1.323-2.774 3.052v1.017h-1.85V59h48.088V42.724h-1.85v-1.017zM31.85 50.862h-.925v2.035c0 .61-.37 1.017-.925 1.017s-.925-.407-.925-1.017v-2.035h-.925c-.554 0-.924-.407-.924-1.017 0-.61.37-1.017.924-1.017h3.7c.554 0 .924.406.924 1.017 0 .61-.37 1.017-.924 1.017zm24.043-8.138V59c2.034 0 3.699-1.831 3.699-4.069v-8.138c0-2.238-1.665-4.069-3.7-4.069zM16.13 21.362c0-8.443 6.195-15.259 13.87-15.259 7.676 0 13.872 6.816 13.872 15.26V36.62h5.549V21.362C49.42 9.562 40.728 0 30 0 19.273 0 10.58 9.562 10.58 21.362v15.259h5.548V21.362z"/></svg>