<svg viewBox="0 0 18 19" xmlns="http://www.w3.org/2000/svg"><path d="M11.035 8.445a3.956 3.956 0 013.972 3.973c0 .777-.22 1.51-.609 2.118l2.72 2.737L15.89 18.5l-2.754-2.71c-.61.38-1.333.6-2.101.6a3.956 3.956 0 01-3.973-3.972 3.956 3.956 0 013.973-3.973zm0 1.766a2.207 2.207 0 100 4.414 2.207 2.207 0 000-4.414zm-7.504.882v1.766h1.766a5.866 5.866 0 001.598 3.531h-5.13A1.766 1.766 0 010 14.625V2.265A1.76 1.76 0 011.766.5h12.359a1.766 1.766 0 011.765 1.766v7.088a5.731 5.731 0 00-4.855-2.674 5.723 5.723 0 00-3.055.882H3.531v1.766H6.18a6.265 6.265 0 00-.732 1.765H3.53zm8.828-5.296V4.03H3.531v1.766h8.828z"/></svg>