<svg viewBox="0 0 60 60" fill="none" xmlns="http://www.w3.org/2000/svg"><path d="M57.324 37.94h-11.87a1.952 1.952 0 01-1.955-1.955c0-1.048.838-1.956 1.955-1.956h5.516a1.952 1.952 0 001.955-1.955 1.952 1.952 0 00-1.955-1.954H38.542a1.952 1.952 0 01-1.955-1.956c0-1.117.838-1.955 1.955-1.955h10.892l-1.536-12.288H9.426L8.169 24.324H1.955A1.952 1.952 0 000 26.28c0 1.048.838 1.955 1.955 1.955h7.541c1.047 0 1.955.838 1.955 1.955a1.952 1.952 0 01-1.955 1.955H4.329l-.698 5.865H2.304A1.952 1.952 0 00.35 39.964c0 1.048.838 1.955 1.955 1.955h11.451c1.047 0 1.955.838 1.955 1.956a1.952 1.952 0 01-1.955 1.955H7.75L6.493 57H55.16l-1.745-15.15h3.98a1.952 1.952 0 001.955-1.955c-.07-1.048-.908-1.955-2.025-1.955z" fill="#464C57"/><path d="M41.545 20.275a2.234 2.234 0 100-4.469 2.234 2.234 0 000 4.469zm-23.74 0a2.234 2.234 0 100-4.469 2.234 2.234 0 000 4.469z" fill="#fff"/><path d="M41.544 19.157c-.628 0-1.117-.488-1.117-1.047v-4.399c0-6.074-4.818-10.892-10.753-10.892a10.787 10.787 0 00-10.822 10.823v4.398c0 .629-.489 1.048-1.047 1.048a1.028 1.028 0 01-1.048-1.048v-4.398C16.687 6.45 22.483.655 29.674.655c7.122 0 12.918 5.795 12.918 12.987v4.398c0 .629-.49 1.117-1.048 1.117zM25.693 42.688a7.82 7.82 0 100-15.64 7.82 7.82 0 000 15.64z" fill="#C60F28"/><path d="M23.042 54.837c1.536 2.863 4.539 4.818 8.03 4.818 5.027 0 9.146-4.12 9.146-9.147v-6.563a2.325 2.325 0 00-2.304-2.304c-.558 0-1.047.209-1.466.488-.07-1.326-1.117-2.444-2.514-2.444-.698 0-1.326.28-1.815.768-.21-1.187-1.257-2.094-2.444-2.094a2.48 2.48 0 00-1.745.698v-3.77a2.503 2.503 0 00-2.514-2.514 2.503 2.503 0 00-2.513 2.514v9.216c-.908 0-1.816.35-2.584.978-1.675 1.466-1.885 4.05-.419 5.725l3.142 3.63z" fill="#fff"/></svg>