<svg viewBox="0 0 66 59" xmlns="http://www.w3.org/2000/svg"><path d="M23.822 0C25.133 3.933 28.74 6.556 33 6.556c4.261 0 7.867-2.623 9.178-6.556h3.933c3.606 0 8.195 2.294 10.161 5.572l9.506 14.095-11.145 8.85-1.966-2.295v29.5c0 1.64-1.64 3.278-3.278 3.278H16.61c-1.967 0-3.278-1.639-3.278-3.278v-29.5l-1.639 2.295-11.472-8.85L9.728 5.572C11.694 2.294 16.283 0 19.888 0h3.934zm19.011 19.667c-1.966 0-3.277 1.31-3.277 3.277s1.31 3.278 3.277 3.278 3.278-1.31 3.278-3.278c0-1.966-1.311-3.277-3.278-3.277z"/></svg>