<svg viewBox="0 0 86 47" fill="none" xmlns="http://www.w3.org/2000/svg"><path d="M17.674 26.396c.132 0 .22 0 .352.044h6.744c.132 0 .22 0 .352-.044.22-.044.485-.088.706-.176 1.146-.485 1.763-1.807 1.542-2.953-.22-.97-.97-1.763-1.895-2.027-.132-.044-.22-.044-.353-.089-.132 0-.22 0-.352-.044h-6.744c-.308 0-.396 0-.705.088-.22.045-.44.177-.661.309-.926.573-1.455 1.719-1.234 2.777.22 1.102 1.19 1.94 2.248 2.115zM2.29 5.24c.089.044.221.044.353.044h6.744c.132 0 .22 0 .353-.044.22-.044.485-.088.705-.176 1.146-.485 1.763-1.807 1.543-2.953-.22-.97-.97-1.763-1.896-2.028C9.96.04 9.872.04 9.74-.005c-.133 0-.22 0-.353-.044H2.643c-.308.044-.396.044-.705.132-.22.044-.44.177-.66.309A2.637 2.637 0 00.042 3.169 2.623 2.623 0 002.291 5.24zm5.907 16c-.132-.044-.22-.044-.352-.089-.133 0-.22 0-.353-.044H3.834c-.309 0-.397 0-.706.088-.22.045-.44.177-.66.309-.926.573-1.455 1.719-1.235 2.777.22 1.058 1.146 1.94 2.248 2.071.132 0 .22 0 .353.044h3.658c.132 0 .22 0 .353-.044.22-.044.484-.088.705-.176 1.146-.485 1.763-1.807 1.542-2.953a2.777 2.777 0 00-1.895-1.983zm13.179 19.57c-.133-.045-.22-.045-.353-.089-.132 0-.22 0-.353-.044h-3.658c-.309 0-.397 0-.705.088-.22.044-.44.177-.661.309-.926.573-1.455 1.719-1.234 2.777.22 1.057 1.146 1.939 2.248 2.071.132 0 .22 0 .352.044h3.658c.133 0 .22 0 .353-.044.22-.044.485-.088.705-.176 1.146-.485 1.763-1.807 1.543-2.953a2.777 2.777 0 00-1.895-1.984z" fill="#C60F28"/><path d="M85.462 12.471v-.22c-.044-.397-.265-.793-.529-1.102-.132-.176-.22-.22-.353-.308-.044 0-.044-.044-.088-.044 0 0-.044 0-.044-.045L66.29.262 66.025.13c-.265-.088-.309-.088-.618-.132H20.671c-.309 0-.397 0-.706.088-.22.044-.44.176-.66.309-.926.573-1.455 1.719-1.235 2.776.22 1.058 1.146 1.94 2.248 2.072.132 0 .22 0 .353.044h12.253c.132 0 .308.044.44.044.089 0 .177.044.265.044.925.265 1.675 1.058 1.895 2.028.265 1.146-.397 2.468-1.543 2.953-.22.088-.44.176-.705.176-.132 0-.22 0-.352.044H2.644c-.309 0-.397 0-.706.088-.22.044-.44.177-.66.309-.926.573-1.455 1.719-1.235 2.777.22 1.057 1.146 1.939 2.248 2.071.132 0 .22 0 .353.044h36.494c.133 0 .309.044.441.044.088 0 .176.044.264.044.926.265 1.675 1.058 1.896 2.028.264 1.146-.397 2.468-1.543 2.953-.22.088-.44.176-.705.176a.97.97 0 00-.353.044h-5.465c-.309 0-.397 0-.705.088-.22.044-.441.177-.661.309-.926.573-1.455 1.719-1.235 2.777.22 1.058 1.146 1.94 2.248 2.071.133 0 .22 0 .353.044h13.355c1.19 0 2.116-.97 2.116-2.115v-7.493c0-.309.352-.485.617-.353l9.344 5.422a8.143 8.143 0 014.055 7.052v4.716c0 2.997-3.262 4.892-5.862 3.394l-7.67-4.452c-.264-.132-.44-.397-.529-.705-.176-.97-1.057-1.675-2.071-1.675h-33.41c-.308 0-.396 0-.705.088-.22.044-.44.176-.66.309-.926.573-1.455 1.718-1.235 2.776.22 1.058 1.146 1.94 2.248 2.072.132 0 .22 0 .352.044h22.567c.133 0 .309.044.441.044.088 0 .176.044.265.044.925.265 1.674 1.058 1.895 2.028.264 1.146-.397 2.468-1.543 2.953-.22.088-.44.176-.705.176-.132 0-.22 0-.353.044H29.53c-.309 0-.397 0-.705.088-.22.044-.441.177-.662.309-.925.573-1.454 1.719-1.234 2.776.22 1.058 1.146 1.94 2.248 2.072.133 0 .22 0 .353.044h36.054c.132-.044.308-.044.44-.132.045 0 .089-.044.133-.088.176-.088.308-.176.44-.265l17.851-10.358a.92.92 0 00.265-.176c.308-.264.573-.617.705-1.014.088-.264.088-.352.088-.617V12.515c-.044 0-.044 0-.044-.044zM65.98 4.846l12.782 7.36c.22.133.22.486 0 .618l-2.512 1.454c-.44.265-.97.265-1.366 0l-12.738-7.36a.413.413 0 010-.705l2.424-1.41a1.46 1.46 0 011.41.043zM64.57 20.23l-12.738-7.36a.413.413 0 010-.706l2.424-1.41a1.35 1.35 0 011.41 0l12.783 7.36c.22.132.22.485 0 .617l-2.513 1.455c-.396.264-.925.264-1.366.044zm16.793 11.504a.945.945 0 01-.485.837l-12.12 7.008a.947.947 0 01-1.411-.838V24.724c0-.352.176-.66.485-.837l3.261-1.895v7.625c0 .485.53.793.926.529l5.069-2.91c.308-.175.528-.528.528-.88v-8.11l2.336-1.323a.947.947 0 011.41.838v13.972z" fill="#464C57"/></svg>