<svg viewBox="0 0 19 15" xmlns="http://www.w3.org/2000/svg"><path d="M2.714.714H5.43v2.83a2.036 2.036 0 00-2.6 2.599H0V3.429A2.714 2.714 0 012.714.714zM6.786 8.46l1.555 1.556a.68.68 0 00.96-.96L7.746 7.5H19v4.071a2.714 2.714 0 01-2.714 2.715h-9.5V8.46zM4.47 7.5L2.911 9.055a.68.68 0 00.961.961L5.43 8.46v5.826H2.714A2.714 2.714 0 010 11.57V7.5h4.47zm4.915-1.357a2.036 2.036 0 00-2.6-2.6V.715h9.5A2.714 2.714 0 0119 3.43v2.714H9.385zm-2.599-.679v.679h.678a.679.679 0 10-.678-.679zm-1.357 0v.679H4.75a.679.679 0 11.679-.679z"/></svg>