<svg viewBox="0 0 39 40" fill="none" xmlns="http://www.w3.org/2000/svg"><path fill-rule="evenodd" clip-rule="evenodd" d="M0 35.99V8.23a2.925 2.925 0 012.923-2.92H30.68L0 35.989z" fill="#189C55"/><path fill-rule="evenodd" clip-rule="evenodd" d="M0 36.577v-.58L30.68 5.31h.58a2.92 2.92 0 012.923 2.922v.58L3.503 39.5h-.58A2.925 2.925 0 010 36.577z" fill="#FFDC34"/><path fill-rule="evenodd" clip-rule="evenodd" d="M3.502 39.5l13.594-13.585L30.68 39.5H3.502z" fill="#5785C4"/><path fill-rule="evenodd" clip-rule="evenodd" d="M30.68 39.5L16.884 25.703l3.503-3.503 13.797 13.798v.58A2.92 2.92 0 0131.26 39.5h-.58z" fill="#fff"/><path fill-rule="evenodd" clip-rule="evenodd" d="M34.183 35.99L20.598 22.403 34.183 8.82v27.17z" fill="#CCC9C9"/><path d="M6.098 9.089c1.74-.8 3.92-.474 5.332.832-.441.45-.898.89-1.347 1.331-1.413-1.404-4.066-.735-4.727 1.119-.866 1.828.571 4.22 2.612 4.253 1.33.155 2.662-.735 2.94-2.065-.932 0-1.862-.009-2.793.008a24.242 24.242 0 01-.016-1.723c1.55.04 3.143-.09 4.678.065.114 1.135.032 2.343-.572 3.34-.955 1.788-3.225 2.563-5.135 2.114-2.368-.49-4.14-2.923-3.82-5.323.154-1.706 1.305-3.241 2.848-3.951z" fill="#EFEFEF"/><path d="M28.215.5h1.11c2.768.155 5.479 1.51 7.16 3.74 1.102 1.403 1.715 3.15 1.854 4.922v.661c-.066 3.438-2.262 6.254-4.164 8.932-2.14 3.02-4.115 6.31-4.662 10.034-.147.628.033 1.51-.727 1.796-.18-.139-.383-.253-.506-.441-.22-2.082-.743-4.14-1.633-6.033-1.004-2.213-2.408-4.213-3.837-6.172-.865-1.176-1.681-2.393-2.359-3.682-1.061-1.944-1.461-4.238-1.02-6.417.359-1.723 1.257-3.315 2.498-4.548C23.602 1.643 25.872.647 28.215.5zm-.22 6.05c-1.315.294-2.417 1.453-2.531 2.816-.14 1.266.604 2.556 1.739 3.11 1.233.654 2.849.45 3.878-.49.963-.848 1.306-2.31.808-3.502-.588-1.477-2.351-2.326-3.894-1.934z" fill="#DC4B3E"/><path d="M27.995 6.55c1.543-.392 3.298.449 3.894 1.935.498 1.183.155 2.653-.808 3.502-1.03.939-2.646 1.143-3.878.49-1.135-.555-1.878-1.845-1.74-3.11.115-1.356 1.217-2.523 2.532-2.817z" fill="#802C27"/></svg>