<svg viewBox="0 0 158 33" xmlns="http://www.w3.org/2000/svg"><path d="M51.17 26.72v-.55h.225v-.09h-.543v.09h.227v.55h.09zm1.04 0v-.64h-.181l-.181.458-.181-.459h-.181v.642h.136v-.504l.18.412h.136l.181-.412v.504h.09zm-27.281 3.21c.135.09.271.228.407.32A16.085 16.085 0 0116.333 33C7.284 33 0 25.62 0 16.5 0 7.38 7.284 0 16.287 0c3.348 0 6.425 1.008 9.004 2.75-.136.092-.272.23-.408.32-3.845 3.393-6.017 8.25-6.017 13.43a17.933 17.933 0 006.063 13.43zM36.42 0a15.976 15.976 0 00-9.003 2.75c.136.092.271.23.407.32 3.846 3.393 6.017 8.25 6.017 13.43a18.052 18.052 0 01-6.017 13.43c-.136.09-.271.228-.407.32A16.085 16.085 0 0036.42 33c9.003 0 16.287-7.38 16.287-16.5C52.707 7.38 45.423 0 36.42 0zM26.331 3.53c-.226.183-.407.32-.633.503A16.721 16.721 0 0020.133 16.5a16.6 16.6 0 005.61 12.467c.18.183.407.366.633.504.226-.183.407-.321.634-.504A16.721 16.721 0 0032.574 16.5a16.6 16.6 0 00-5.61-12.467c-.18-.137-.407-.32-.633-.504zm49.513 17.605v-5.07c0-1.927-1.273-3.212-3.324-3.212-1.097 0-2.193.304-2.971 1.454-.601-.913-1.52-1.454-2.794-1.454-.92 0-1.804.27-2.476 1.217v-1.014H62.44v8.079h1.875v-4.462c0-1.42.813-2.163 2.086-2.163 1.238 0 1.84.777 1.84 2.13v4.495h1.874v-4.462c0-1.42.849-2.163 2.086-2.163 1.274 0 1.875.777 1.875 2.13v4.495h1.768zm27.55-8.08h-3.006v-2.467h-1.874v2.468H96.78v1.623h1.733v3.684c0 1.893.778 3.009 2.935 3.009.814 0 1.733-.237 2.299-.643l-.53-1.52c-.566.303-1.167.472-1.627.472-.92 0-1.238-.54-1.238-1.352v-3.684h3.006v-1.59h.035zm15.703-.202c-1.061 0-1.768.473-2.228 1.183v-.98h-1.839v8.079h1.839v-4.53c0-1.352.601-2.096 1.804-2.096.389 0 .778.068 1.167.203l.566-1.656a4.776 4.776 0 00-1.309-.203zm-23.766.845c-.884-.574-2.122-.845-3.466-.845-2.157 0-3.537.98-3.537 2.603 0 1.318 1.026 2.13 2.936 2.4l.884.135c1.026.136 1.485.406 1.485.845 0 .643-.672.98-1.945.98-1.273 0-2.192-.405-2.83-.844l-.883 1.386c1.025.71 2.299 1.047 3.678 1.047 2.44 0 3.855-1.115 3.855-2.636 0-1.42-1.132-2.164-2.971-2.434l-.884-.135c-.814-.102-1.45-.27-1.45-.812 0-.608.601-.946 1.627-.946 1.096 0 2.122.405 2.652.71l.849-1.454zm49.371-.845c-1.061 0-1.768.473-2.228 1.183v-.98h-1.839v8.079h1.839v-4.53c0-1.352.601-2.096 1.804-2.096.389 0 .778.068 1.167.203l.566-1.656a4.776 4.776 0 00-1.309-.203zm-23.731 4.26c0 2.467 1.804 4.259 4.527 4.259 1.274 0 2.122-.27 3.042-.98l-.884-1.42c-.708.473-1.415.743-2.228.743-1.486 0-2.547-1.048-2.547-2.603 0-1.555 1.097-2.569 2.547-2.602.813 0 1.52.27 2.228.743l.884-1.42c-.92-.71-1.768-.98-3.042-.98-2.758 0-4.527 1.792-4.527 4.26zm17.224-4.057h-1.839v.98c-.601-.743-1.486-1.183-2.688-1.183-2.37 0-4.244 1.792-4.244 4.26 0 2.467 1.874 4.259 4.244 4.259 1.202 0 2.087-.474 2.688-1.183v.98h1.839v-8.113zm-6.826 4.056c0-1.42.99-2.602 2.582-2.602 1.521 0 2.546 1.115 2.546 2.602 0 1.488-1.025 2.603-2.546 2.603-1.627-.034-2.582-1.183-2.582-2.603zm-22.245-4.259c-2.476 0-4.209 1.724-4.209 4.26 0 2.568 1.804 4.259 4.35 4.259 1.273 0 2.441-.305 3.466-1.15l-.919-1.318a4.197 4.197 0 01-2.476.845c-1.202 0-2.263-.54-2.546-1.994h6.295c.035-.237.035-.44.035-.676 0-2.502-1.627-4.226-3.996-4.226zm-.036 1.555c1.203 0 1.946.71 2.158 1.96h-4.421c.212-1.149.955-1.96 2.263-1.96zm46.224-4.597h-1.839v4.225c-.601-.743-1.485-1.183-2.688-1.183-2.369 0-4.244 1.792-4.244 4.26 0 2.467 1.875 4.259 4.244 4.259 1.203 0 2.087-.474 2.688-1.183v.98h1.839V9.81zm2.157 10.58a.47.47 0 01.213.034c.07.034.141.068.177.101.035.034.106.102.106.17a.416.416 0 01.035.202c0 .068 0 .136-.035.203-.036.068-.071.102-.106.17a.817.817 0 01-.177.1c-.071.034-.142.034-.213.034-.07 0-.141 0-.212-.033-.07-.034-.141-.068-.177-.102-.035-.034-.07-.101-.106-.169-.035-.067-.035-.135-.035-.203 0-.067 0-.135.035-.203.036-.067.071-.1.106-.169a.817.817 0 01.177-.1c.071-.035.106-.035.212-.035zm0 .913c.071 0 .107 0 .177-.034.036-.034.106-.034.142-.101.035-.034.071-.068.106-.135.035-.034.035-.102.035-.17 0-.067 0-.1-.035-.169-.035-.033-.035-.1-.106-.135a.495.495 0 00-.142-.101c-.035-.034-.106-.034-.177-.034-.07 0-.106 0-.176.034-.036.034-.106.034-.142.101-.035.034-.071.068-.106.136-.035.033-.035.1-.035.168s0 .102.035.17c.035.033.035.101.106.135a.495.495 0 00.142.101c.035.034.106.034.176.034zm0-.642c.071 0 .107 0 .142.034.035.033.035.067.035.1 0 .035 0 .069-.035.102-.035.034-.071.034-.106.034l.177.17h-.142l-.141-.17h-.036v.17h-.106v-.474h.212v.034zm-.106.101v.135h.177l.036-.034c0-.033 0-.033-.036-.033h-.177v-.068zm-8.912-3.65c0-1.42.99-2.604 2.582-2.604 1.521 0 2.546 1.116 2.546 2.603 0 1.488-1.025 2.603-2.546 2.603-1.627-.034-2.582-1.183-2.582-2.603zm-62.21-4.057h-1.838v.98c-.601-.743-1.486-1.183-2.688-1.183-2.37 0-4.244 1.792-4.244 4.26 0 2.467 1.874 4.259 4.244 4.259 1.202 0 2.087-.474 2.688-1.183v.98h1.839v-8.113zm-6.86 4.056c0-1.42.99-2.602 2.582-2.602 1.52 0 2.546 1.115 2.546 2.602 0 1.488-1.026 2.603-2.546 2.603-1.592-.034-2.582-1.183-2.582-2.603z"/></svg>