<svg viewBox="0 0 16 16" xmlns="http://www.w3.org/2000/svg"><path d="M9.305 15.653a8.38 8.38 0 002.275.329 4.99 4.99 0 003.427-1.165c.857-.747 1.182-1.763.886-2.749-.207-.657-1.122-.986-1.654-1.105-1.92-.478-2.334-.598-3.31-.867-.59-.179-.945.389-1.21.777-.148.21-.414.658-.562.628-1.773-.478-3.959-3.317-4.638-4.542a4.86 4.86 0 011.034-.866c.325-.239.62-.448.531-.866-.088-.419-.975-3.884-1.004-4.064C4.725-.15 4.134-.09 3.012.148l-.207.03C1.653.417.737 1.313.294 2.658c-.65 1.911-.384 5.317 2.481 8.574 1.891 2.18 4.225 3.764 6.53 4.421z"/></svg>