<svg fill="none" xmlns="http://www.w3.org/2000/svg"><g clip-path="url(#a)"><ellipse cx="14.5" cy="17.116" rx="12.5" ry="13.954" fill="#fff"/><path d="M14 .948C6.256.948 0 7.865 0 16.427c0 8.561 14.438 28.056 14.438 28.056S28 24.989 28 16.427C28 7.865 21.744.947 14 .947zm0 3.144c6.169 0 11.156 5.514 11.156 12.335 0 6.82-4.987 12.335-11.156 12.335-6.169 0-11.156-5.515-11.156-12.335C2.844 9.607 7.83 4.092 14 4.092z" fill="#CB162E"/><path d="M19.002 14.75l-.36 2.5h-3.587l-.538 3.773h-2.466l.538-3.774H9.002l.358-2.498h3.588l.538-3.774h2.466l-.538 3.774h3.588z" fill="#C60F28"/></g><defs><clipPath id="a"><path fill="#fff" transform="translate(0 .93)" d="M0 0h28v43.535H0z"/></clipPath></defs></svg>