<svg viewBox="0 0 14 13" xmlns="http://www.w3.org/2000/svg"><path d="M9.124 5.5a3.37 3.37 0 00-1.027-2.473A3.37 3.37 0 005.624 2a3.37 3.37 0 00-2.472 1.027A3.37 3.37 0 002.124 5.5a3.37 3.37 0 001.028 2.473A3.37 3.37 0 005.624 9a3.37 3.37 0 002.473-1.027A3.37 3.37 0 009.124 5.5zm4 6.5a.96.96 0 01-.296.703.961.961 0 01-.704.297.93.93 0 01-.703-.297l-2.68-2.672A5.347 5.347 0 015.625 11a5.405 5.405 0 01-2.136-.434A5.5 5.5 0 011.73 9.395 5.5 5.5 0 01.558 7.637 5.405 5.405 0 01.124 5.5c0-.745.145-1.457.434-2.137A5.5 5.5 0 011.73 1.605 5.5 5.5 0 013.488.434 5.405 5.405 0 015.624 0c.745 0 1.458.145 2.137.434A5.5 5.5 0 019.52 1.605a5.5 5.5 0 011.172 1.758c.289.68.433 1.392.433 2.137a5.347 5.347 0 01-.968 3.117l2.68 2.68a.96.96 0 01.288.703z"/></svg>