<svg viewBox="0 0 16 14" xmlns="http://www.w3.org/2000/svg"><path d="M15.975 3.1l-1.95 6.425c-.075.2-.25.35-.475.35h-8.8a.533.533 0 01-.5-.375L2.35 1H.5A.501.501 0 010 .5C0 .225.225 0 .5 0h2.25c.225 0 .425.15.5.4l.475 2.075H15.5c.275 0 .5.225.5.5 0 .025 0 .075-.025.125zm-3.825 7.725c-1.025 0-1.875.85-1.875 1.875s.85 1.875 1.875 1.875 1.875-.85 1.875-1.875c0-1.05-.85-1.875-1.875-1.875zm-5.925 0c-1.025 0-1.875.85-1.875 1.875s.85 1.875 1.875 1.875S8.1 13.725 8.1 12.7c0-1.05-.85-1.875-1.875-1.875z"/></svg>