<svg viewBox="0 0 16 16" xmlns="http://www.w3.org/2000/svg"><path d="M14.874 3.559c-.278-.973-.8-1.738-1.599-2.294C12.267.57 11.155.327 10.148.188 8.792-.021 7.54-.056 6.36.083c-1.113.14-1.947.348-2.711.695-1.494.696-2.398 1.808-2.641 3.302-.14.73-.209 1.39-.278 2.016-.105 1.46 0 2.745.347 3.927.348 1.146.904 1.98 1.773 2.537.208.138.486.243.764.347.14.07.313.104.417.174.14.035.14.035.14.139V16h.625l.104-.104c.07-.07 1.599-1.53 2.155-2.155l.07-.07c.069-.104.069-.104.173-.104.73 0 1.494-.034 2.259-.07.903-.034 1.946-.138 2.954-.555.903-.383 1.564-.973 1.98-1.773.418-.834.66-1.737.765-2.78.14-1.842 0-3.406-.382-4.83zm-3.267 7.054c-.243.383-.556.626-.973.8-.278.139-.59.104-.869-.035-2.432-1.008-4.309-2.641-5.56-4.97-.243-.486-.452-1.007-.66-1.494-.035-.104-.035-.209-.07-.348.035-.799.66-1.285 1.286-1.424.243-.07.452.034.625.208.487.487.904 1.008 1.182 1.633.14.279.07.522-.139.696-.035.034-.104.069-.139.104-.486.382-.59.66-.313 1.216.452.973 1.217 1.633 2.19 2.016.243.104.486.07.695-.14l.07-.069c.382-.66.938-.59 1.459-.208.347.243.66.486 1.008.73.52.417.52.764.208 1.285zM8.375 4.184c-.104 0-.243 0-.347.035a.381.381 0 01-.417-.278c-.035-.174.104-.382.278-.382.139-.035.312-.035.451-.035a2.751 2.751 0 012.746 2.745c0 .14 0 .313-.035.452a.338.338 0 01-.347.278h-.07c-.174-.035-.313-.208-.278-.382.035-.104.035-.209.035-.348a1.991 1.991 0 00-2.016-2.085zm1.703 2.085c0 .209-.139.348-.347.348-.209 0-.348-.14-.348-.348 0-.59-.452-1.042-1.043-1.042-.208 0-.347-.14-.347-.348 0-.208.139-.347.347-.347a1.72 1.72 0 011.738 1.737zm1.98.765a.338.338 0 01-.347.278h-.07a.381.381 0 01-.277-.417c.035-.209.07-.452.07-.695.034-1.668-1.356-3.058-3.024-3.058-.243 0-.452.034-.695.07-.174.034-.382-.07-.417-.244-.035-.174.07-.382.278-.417a3.02 3.02 0 01.834-.104A3.76 3.76 0 0112.163 6.2c0 .278-.034.556-.104.834z"/></svg>