<svg viewBox="0 0 14 15" xmlns="http://www.w3.org/2000/svg"><path d="M7 14.5a6.797 6.797 0 0 1-4.006-1.271c-.319.391-.743.701-1.271.93A4.305 4.305 0 0 1 0 14.5c.228 0 .426-.349.595-1.046.168-.697.262-1.556.28-2.577A6.834 6.834 0 0 1 0 7.5c0-1.267.312-2.438.937-3.514a6.913 6.913 0 0 1 2.55-2.55A6.876 6.876 0 0 1 7 .5c1.267 0 2.438.312 3.514.937a6.913 6.913 0 0 1 2.55 2.55A6.877 6.877 0 0 1 14 7.5a6.877 6.877 0 0 1-.937 3.514 6.914 6.914 0 0 1-2.55 2.55A6.877 6.877 0 0 1 7 14.5ZM7 2.25c-.948 0-1.825.235-2.632.704a5.21 5.21 0 0 0-1.914 1.914A5.141 5.141 0 0 0 1.75 7.5c0 .948.235 1.825.704 2.632a5.21 5.21 0 0 0 1.914 1.914c.807.47 1.684.704 2.632.704.948 0 1.825-.235 2.632-.704a5.21 5.21 0 0 0 1.914-1.914c.47-.807.704-1.684.704-2.632 0-.948-.235-1.825-.704-2.632a5.21 5.21 0 0 0-1.914-1.914A5.141 5.141 0 0 0 7 2.25Zm2.632 6.125a.849.849 0 0 1-.622-.26.84.84 0 0 1-.26-.615.84.84 0 0 1 .26-.615.849.849 0 0 1 .622-.26c.241 0 .447.087.615.26a.852.852 0 0 1 .253.615.852.852 0 0 1-.253.615.826.826 0 0 1-.615.26Zm-2.625 0a.849.849 0 0 1-.622-.26.84.84 0 0 1-.26-.615.84.84 0 0 1 .26-.615.84.84 0 0 1 .615-.26.84.84 0 0 1 .615.26c.173.173.26.38.26.622a.837.837 0 0 1-.253.615.837.837 0 0 1-.615.253Zm-2.625 0a.86.86 0 0 1-.622-.253.834.834 0 0 1-.26-.622c0-.246.087-.453.26-.622a.86.86 0 0 1 .622-.253c.241 0 .446.087.615.26a.86.86 0 0 1 .253.622.837.837 0 0 1-.253.615.837.837 0 0 1-.615.253Z"/></svg>
