<svg id="social-icon-insta" width="33" height="33" fill="none" xmlns="http://www.w3.org/2000/svg"><circle cx="16.3" cy="16.73" r="16" fill="#9E6AB0"/><path d="M13.383 9.73A4.058 4.058 0 0 0 9.3 13.813v5.834a4.058 4.058 0 0 0 4.083 4.083h5.834a4.058 4.058 0 0 0 4.083-4.083v-5.834a4.058 4.058 0 0 0-4.084-4.083h-5.833Zm7 2.333c.35 0 .584.234.584.584s-.234.583-.584.583-.583-.233-.583-.583.233-.584.583-.584ZM16.3 13.23a3.51 3.51 0 0 1 3.5 3.5 3.51 3.51 0 0 1-3.5 3.5 3.51 3.51 0 0 1-3.5-3.5 3.51 3.51 0 0 1 3.5-3.5Zm0 1.167a2.34 2.34 0 0 0-2.334 2.333 2.34 2.34 0 0 0 2.334 2.333 2.34 2.34 0 0 0 2.333-2.333 2.34 2.34 0 0 0-2.333-2.333Z" fill="#FAF8F8"/></svg>
