<svg width="102" height="18" viewBox="0 0 102 18" fill="none" xmlns="http://www.w3.org/2000/svg">
<path d="M12 16.9443L14.7007 0.363589H24.1215C26.0685 0.363589 27.4502 0.80323 28.2039 1.68251C28.9576 2.56179 29.2716 3.56669 29.0832 4.69719C28.9576 5.51367 28.5807 6.26734 27.9527 6.9582C27.3246 7.64906 26.4453 8.08871 25.3776 8.33993C27.7015 8.84237 28.7063 10.1613 28.3295 12.1711C28.1411 13.4272 27.513 14.4949 26.5081 15.4998C25.5033 16.4419 23.6191 16.9443 20.8556 16.9443H12ZM18.9086 6.70698H21.5465C22.1745 6.70698 22.677 6.58137 22.991 6.26734C23.305 5.95331 23.4935 5.63928 23.5563 5.32525C23.6819 4.38316 23.1166 3.94352 21.8605 3.94352H19.3483L18.9086 6.70698ZM17.8409 13.2388H20.6044C21.2953 13.2388 21.7977 13.1132 22.1745 12.7991C22.5514 12.4851 22.7398 12.1711 22.8026 11.7942C22.8654 11.4174 22.7398 11.0406 22.4886 10.7265C22.2373 10.4125 21.6721 10.2241 20.8556 10.2241H18.2806L17.8409 13.2388Z" fill="white"/>
<path d="M44.4716 12.9876L43.8435 16.9443H29.9006L32.6013 0.363589H46.5442L45.9161 4.19474H37.563L37.1233 6.58137H43.9063L43.3411 10.2869H36.5581L36.1184 12.9876H44.4716Z" fill="white"/>
<path d="M49.9981 16.9443H45.4761L54.0177 0.363589H60.0471L63.1245 16.9443H57.5348L55.7135 5.13683L49.9981 16.9443Z" fill="white"/>
<path d="M72.5448 17.1955C69.9698 17.1955 67.96 16.4418 66.5155 14.8717C65.1337 13.3015 64.6313 11.2289 65.0709 8.6539C65.4478 6.20447 66.5783 4.13188 68.3997 2.49893C70.2838 0.92878 72.6076 0.112305 75.4339 0.112305C78.0089 0.112305 80.0187 0.865974 81.4005 2.37331C82.7822 3.88065 83.2846 5.95325 82.845 8.46548C82.4053 11.1033 81.2748 13.1759 79.3279 14.8089C77.3809 16.379 75.1827 17.1955 72.5448 17.1955ZM73.1729 13.4271C74.115 13.4271 74.8687 13.0503 75.4339 12.2966C75.9992 11.543 76.4388 10.1612 76.7528 8.21426C77.1925 5.32519 76.5644 3.88065 74.8687 3.88065C72.9845 3.88065 71.7912 5.5136 71.2887 8.77951C70.7235 11.9198 71.3515 13.4271 73.1729 13.4271Z" fill="white"/>
<path d="M102 7.02098L101.498 10.0985H96.4731L95.7194 14.7461H92.2651L93.0188 10.0985H87.9943L88.4967 7.02098H93.5212L94.2749 2.37334H97.7292L96.9755 7.02098H102Z" fill="white"/>
</svg>
