<svg width="100" height="22" fill="none" xmlns="http://www.w3.org/2000/svg"><path d="m84.2 16.73-.22-.2c-.56-.48-.66-1.34-.14-1.9l5.96-6.82c.48-.56 1.34-.66 1.9-.14l.22.2c.56.48.66 1.34.14 1.9l-5.96 6.82c-.48.54-1.32.6-1.9.14Z" fill="url(#a)"/><path opacity=".4" d="m88.98 8.99-.12-.14-.92 1.04.1.12c1.58 1.58.9 3.16.54 3.72l.14-.14c.22-.24.54-.62.88-1.04.38-.62.88-2.1-.62-3.56Z" fill="url(#b)"/><path opacity=".4" d="m90.961 11.03.24-.28c.02-.04.04-.06.06-.1-.26.3-.54.6-.8.92.2-.22.36-.4.5-.54Z" fill="url(#c)"/><path d="m92.099 8.01-5.96-6.82c-.48-.56-1.34-.66-1.9-.14l-.24.2c-.56.48-.66 1.34-.14 1.9l5.02 5.7.12.14c1.5 1.5.98 2.96.6 3.6.3-.34.6-.68.86-1 .26-.32.54-.62.8-.92.26-.3.5-.58.68-.76.58-.56.68-1.34.16-1.9Z" fill="url(#d)"/><path d="m91.781 16.73-.22-.2c-.56-.48-.66-1.34-.14-1.9l5.96-6.82c.48-.56 1.34-.66 1.9-.14l.22.2c.56.48.66 1.34.14 1.9l-5.96 6.82c-.48.54-1.32.6-1.9.14Z" fill="url(#e)"/><path opacity=".4" d="m96.621 8.91-.12-.14-.92 1.04.1.12c1.58 1.58.9 3.16.54 3.72l.14-.14c.22-.24.54-.62.88-1.04.38-.6.88-2.08-.62-3.56Z" fill="url(#f)"/><path opacity=".4" d="m98.522 11.03.24-.28c.02-.04.04-.06.06-.1-.26.3-.54.6-.8.92.2-.22.38-.4.5-.54Z" fill="url(#g)"/><path d="M99.66 8.01 93.7 1.19c-.48-.56-1.34-.66-1.9-.14l-.22.2c-.56.48-.66 1.34-.14 1.9l5 5.7.12.14c1.5 1.5.98 2.96.6 3.6.3-.34.6-.68.86-1 .26-.32.54-.62.8-.92.26-.3.5-.58.68-.76.58-.56.68-1.34.16-1.9Z" fill="url(#h)"/><path d="M.36 16.65c-.22-.22-.36-.56-.36-1V2.15c0-.44.14-.78.42-1.06C.7.81 1.04.67 1.48.67c.44 0 .84.14 1.1.42.28.28.42.62.42 1.06v12.44h6.44c.92 0 1.4.42 1.4 1.22s-.48 1.22-1.4 1.22H1.4c-.44 0-.8-.12-1.04-.38ZM13.158 16.75c-.28-.28-.4-.64-.4-1.1V2.15c0-.44.14-.78.4-1.06.28-.28.62-.42 1.06-.42.44 0 .84.14 1.1.42.28.28.4.62.4 1.06v13.5c0 .44-.14.82-.4 1.1-.28.28-.64.42-1.1.42-.42 0-.78-.14-1.06-.42ZM32.782 20.11c0-.28-.1-.54-.26-.82l-.82-1.22c-.48-.78-1.04-1.3-1.76-1.52 1.36-.6 2.42-1.56 3.14-2.88.74-1.3 1.1-2.88 1.1-4.7 0-1.68-.32-3.16-.94-4.42-.62-1.22-1.5-2.2-2.68-2.88-1.14-.66-2.52-1-4.08-1-1.6 0-2.96.32-4.12 1-1.14.68-2.04 1.64-2.68 2.88-.6 1.26-.94 2.72-.94 4.42 0 1.68.32 3.14.94 4.42.62 1.24 1.5 2.2 2.68 2.88 1.16.66 2.52 1 4.12 1 .56 0 1 .1 1.34.26.34.16.62.42.84.78l1.34 2.24c.16.24.38.44.6.58.24.14.5.2.78.2.36 0 .68-.14.96-.34.28-.2.44-.54.44-.88Zm-1.58-11.2c0 1.9-.42 3.38-1.26 4.42-.84 1.04-2 1.54-3.5 1.54s-2.68-.5-3.5-1.54c-.82-1.04-1.26-2.48-1.26-4.42s.42-3.38 1.26-4.42c.84-1.02 2-1.52 3.5-1.52s2.66.5 3.5 1.52c.84 1.04 1.26 2.5 1.26 4.42ZM37.383 15.65c0 .46.14.82.42 1.1.24.28.62.42 1.06.42.46 0 .82-.14 1.1-.42.28-.26.4-.62.4-1.1v-4.94h4.12c1.74 0 3.08-.42 4.06-1.32.96-.86 1.46-2.1 1.46-3.66s-.5-2.78-1.46-3.64c-.96-.88-2.32-1.32-4.06-1.32h-5.66c-.44 0-.78.14-1.04.36-.26.24-.4.6-.4 1.04v13.48Zm9.78-9.86c0 1.78-1.04 2.68-3.06 2.68l-3.74-.02V3.11h3.74c2.04 0 3.06.9 3.06 2.68ZM65.262 16.75c.28-.26.42-.56.42-.9 0-.22-.04-.4-.12-.6l-6.38-13.66c-.14-.32-.36-.54-.64-.7-.28-.14-.58-.22-.9-.22-.32 0-.62.06-.9.22-.3.16-.5.42-.64.7l-6.36 13.66c-.08.2-.14.42-.14.6 0 .36.14.68.42.9.28.22.62.36.96.36.26 0 .5-.06.7-.2.2-.14.38-.32.5-.6l1.4-3.08h8.06l1.4 3.08c.12.26.3.48.5.6.22.14.46.2.68.2.42 0 .76-.12 1.04-.36Zm-4.56-5.82h-6.08l3.04-6.82 3.04 6.82ZM77.159.69c.34 0 .66.14.94.42.28.28.42.58.42.96 0 .3-.12.6-.34.88l-5.24 6.38v6.38c0 .48-.14.84-.42 1.12-.28.28-.62.4-1.04.4-.44 0-.82-.14-1.1-.4-.28-.26-.42-.62-.42-1.12V9.33l-5.2-6.4c-.22-.28-.34-.58-.34-.88 0-.36.14-.68.42-.96.28-.28.6-.42.94-.42.4 0 .7.16.98.5l4.7 5.84 4.7-5.84c.26-.32.6-.48 1-.48Z" fill="#4B4C4B"/><defs><linearGradient id="a" x1="83.805" y1="14.194" x2="92.089" y2="10.177" gradientUnits="userSpaceOnUse"><stop stop-color="#1FADC3"/><stop offset=".707" stop-color="#36B98F"/></linearGradient><linearGradient id="b" x1="88.81" y1="11.283" x2="90.358" y2="11.057" gradientUnits="userSpaceOnUse"><stop stop-color="#123F06" stop-opacity=".01"/><stop offset="1" stop-color="#123F06"/></linearGradient><linearGradient id="d" x1="82.11" y1="4.792" x2="92.157" y2="8.264" gradientUnits="userSpaceOnUse"><stop stop-color="#9FDB57"/><stop offset="1" stop-color="#71CA5E"/></linearGradient><linearGradient id="e" x1="91.375" y1="14.198" x2="99.66" y2="10.181" gradientUnits="userSpaceOnUse"><stop stop-color="#1FADC3"/><stop offset=".707" stop-color="#36B98F"/></linearGradient><linearGradient id="f" x1="96.453" y1="11.217" x2="98.001" y2="10.992" gradientUnits="userSpaceOnUse"><stop stop-color="#123F06" stop-opacity=".01"/><stop offset="1" stop-color="#123F06"/></linearGradient><linearGradient id="h" x1="89.677" y1="4.794" x2="99.724" y2="8.266" gradientUnits="userSpaceOnUse"><stop stop-color="#9FDB57"/><stop offset="1" stop-color="#71CA5E"/></linearGradient><radialGradient id="c" cx="0" cy="0" r="1" gradientUnits="userSpaceOnUse" gradientTransform="matrix(3.99868 0 0 4.56988 87.666 11.884)"><stop offset=".418" stop-color="#123F06" stop-opacity=".01"/><stop offset="1" stop-color="#123F06"/></radialGradient><radialGradient id="g" cx="0" cy="0" r="1" gradientUnits="userSpaceOnUse" gradientTransform="matrix(3.99864 0 0 4.56988 95.234 11.884)"><stop offset=".418" stop-color="#123F06" stop-opacity=".01"/><stop offset="1" stop-color="#123F06"/></radialGradient></defs></svg>