<svg style="display:none">

    <symbol id="arw-right" xmlns="http://www.w3.org/2000/svg" viewBox="0 0 25.2 43.5"><path d="M0 40l3.5 3.5 21.7-21.7L3.5 0 0 3.5l18.2 18.3z"/></symbol>
    <symbol id="menu-icon" xmlns="http://www.w3.org/2000/svg" viewBox="0 0 24 15"><path fill-rule="evenodd" d="M1.5 0a1.5 1.5 0 11-.001 3.001A1.5 1.5 0 011.5 0zM8 0h15a1 1 0 010 2H8a1 1 0 010-2zM1.5 6a1.5 1.5 0 11-.001 3.001A1.5 1.5 0 011.5 6zM8 6h13a1 1 0 010 2H8a1 1 0 010-2zM1.5 12a1.5 1.5 0 11-.001 3.001A1.5 1.5 0 011.5 12zM8 12h10a1 1 0 010 2H8a1 1 0 010-2z"/></symbol>
    <symbol id="mono" xmlns="http://www.w3.org/2000/svg" viewBox="0 0 114.7 16.7" stroke="initial"><path d="M18 16.2V7.8c0-2.4-1.3-3.5-3.4-3.5-1.8 0-3.3 1.1-4 2.1-.4-1.3-1.5-2.1-3.2-2.1-1.8 0-3.4 1.1-3.8 1.8V4.6h-3v11.6h3V8.4C4 7.8 4.9 7 6 7c1.2 0 1.7.8 1.7 1.8v7.3h3.1V8.4c.4-.6 1.3-1.4 2.4-1.4 1.2 0 1.7.8 1.7 1.8v7.3H18zm8.3.3c-3.8 0-6.1-2.8-6.1-6.1s2.3-6.1 6.1-6.1 6.1 2.8 6.1 6.1c.1 3.3-2.2 6.1-6.1 6.1zm0-2.7c1.9 0 3-1.6 3-3.4 0-1.8-1.1-3.4-3-3.4s-3 1.6-3 3.4c.1 1.8 1.1 3.4 3 3.4zm19.3 2.4V8c0-2.3-1.2-3.7-3.8-3.7-1.9 0-3.3.9-4.1 1.8V4.6h-3v11.6h3V8.4c.6-.7 1.5-1.4 2.7-1.4 1.3 0 2.1.6 2.1 2.2v7h3.1zm8.4.3c-3.8 0-6.1-2.8-6.1-6.1s2.3-6.1 6.1-6.1 6.1 2.8 6.1 6.1c.1 3.3-2.3 6.1-6.1 6.1zm0-2.7c1.9 0 3-1.6 3-3.4C57 8.6 55.9 7 54 7s-3 1.6-3 3.4c.1 1.8 1.1 3.4 3 3.4zm11.5-1.3c.5.7 1.6 1.3 2.6 1.3 1.8 0 3-1.3 3-3.4S69.8 7 68.1 7c-1 0-2.1.6-2.6 1.3v4.2zm0 3.7h-3V.2h3v5.9c.9-1.2 2.2-1.8 3.6-1.8 3 0 5.1 2.3 5.1 6.1 0 3.9-2.2 6.1-5.1 6.1-1.4 0-2.7-.6-3.6-1.8v1.5zm21 0h-3V15c-.8.9-2.2 1.5-3.7 1.5-1.8 0-4-1.2-4-3.8 0-2.7 2.2-3.7 4-3.7 1.5 0 2.9.5 3.7 1.4V8.8c0-1.2-1-1.9-2.5-1.9-1.2 0-2.4.5-3.4 1.4l-1.2-2c1.4-1.2 3.2-1.8 5.1-1.8 2.6 0 5.1 1.1 5.1 4.4l-.1 7.3zM81 14.4c1 0 1.9-.3 2.4-1V12c-.5-.7-1.5-1-2.4-1-1.2 0-2.2.6-2.2 1.8 0 1 1 1.6 2.2 1.6zm19.4 1.8V8c0-2.3-1.2-3.7-3.8-3.7-1.9 0-3.3.9-4.1 1.8V4.6h-3v11.6h3V8.4C93.1 7.7 94 7 95.2 7c1.3 0 2.1.6 2.1 2.2v7h3.1zm14.3 0L110 9.9l4.6-5.3h-3.7l-4.4 5.2V.2h-3v16h3v-3l1.4-1.5 3.1 4.5h3.7z"/></symbol>
    <symbol id="phone" xmlns="http://www.w3.org/2000/svg" viewBox="0 0 45.4 45.9"><path d="M38.6 29.2c-2.7-1-6.6-3.1-9.1-.9l-2.6 2.2c-2.3-1.5-4.5-3.3-6.5-5.3l-.4-.1c-1.9-1.9-3.6-4-5-6.2l2.2-2.6c2.3-2.6.2-6.5-.8-9.2C14.7 2.4 14.2 0 8.5.3 6.9.1 5.2.9 4.1 2.1c-9.8 10.3 0 23.5 7.7 31.3 2.4 2.4 5.4-.5 2.9-2.9C9.9 25.6 4 18.6 4.2 11.3c0-2 1.5-6.3 3.9-6.9H8.7c.7 0 1.6-.1 2.3.1.4.6 3.3 8.5 3.3 8.9l-2.4 2.9c-.7.9-1.1 2-1 3.1.1.9.5 1.5.5 1.5 1.6 2.6 3.6 5 5.7 7.2l.4.4c1.8 1.8 3.6 3.2 5 4.2s2.3 1.6 2.3 1.6c1.4.9 3.3.6 4.6-.4l2.7-2.3c.9-.1 8.1 2.6 9.1 3.4.1 1.2 0 2.1 0 2.1V37.7c-.1.2-.2.6-.6 1-10.1 9.6-18.4-7.2-26.2.5-2 2 1 4.9 2.9 2.9 1.2-1.2 2.8-1.4 5.5.3 3.5 2.2 7.2 3.4 11.5 3.3 4.2-.1 11.2-3.4 11-8.5.3-5.8-2-6.3-6.7-8zM10.4 40.7c-1.4 0-2.6 1.1-2.6 2.6 0 1.4 1.1 2.6 2.6 2.6s2.6-1.1 2.6-2.6-1.2-2.6-2.6-2.6z"/></symbol>
    <symbol id="privat-1" xmlns="http://www.w3.org/2000/svg" viewBox="0 0 130.3 115.7"><path d="M72 .3c-12 0-23.2 3.7-32.4 10L72.2 59 23 87.9c10.1 16.4 28.3 27.4 49 27.4 31.8 0 57.5-25.7 57.5-57.5C129.5 26.1 103.8.3 72 .3z" fill="#ffcf03"/><path d="M58 56.7L25.8 8.5C10.5 18.9.5 36.4.5 56.2c0 10.8 3 20.9 8.1 29.5l49.4-29z" fill="#00b001"/></symbol>
    <symbol id="privat-2" xmlns="http://www.w3.org/2000/svg" viewBox="0 0 2225 376.6" ><path d="M595.647 279.559v-95h46v8.5c0 4.7.3 8.5.6 8.5s3.3-2.3 6.8-5c7.3-5.9 19.6-12.2 28.7-14.7 9.7-2.6 32.7-2.3 43.4.6 13.7 3.7 22 8.5 31.6 18.1 9.9 10 14.8 18.7 18.1 32.8 2.4 10.2 2.9 28 .9 38.3-5.4 28.7-26.2 49.4-55.7 55.5-23.6 4.9-51.4-.8-65.5-13.4-2.6-2.3-4.9-4.1-5.3-4.1s-.6 14.6-.6 32.5v32.4h-49v-95zm103.2 19.3c14.7-6.6 22.8-22.5 22.8-44.8 0-21.7-6.8-35.9-20.8-42.9-14.8-7.5-33.5-5.1-44.9 5.7-8.8 8.4-13.2 20.7-13.2 37.2 0 24.6 10.6 42.1 28.3 46.6 1.7.4 7.6.7 13.1.5 7.6-.1 11.1-.7 14.7-2.3zm134.8 29.5c-20.3-1.6-34-10-41.1-25.3-5.5-11.8-5.8-15.4-5.9-69.3v-49.3h48.8l.3 47.8c.3 47 .4 47.8 2.6 53.4 2.9 7.3 5.4 10.4 10.5 13.1 3.6 1.9 5.7 2.2 15.7 2.2 10.6 0 11.9-.2 16.6-2.7 6.4-3.4 11.6-9.4 14.6-16.7 2.2-5.5 2.3-6.5 2.6-51.3l.3-45.8h50v139.1h-50v-8c0-4.4-.2-8-.5-8s-3.3 2.3-6.8 5.1c-15.4 12.5-34.2 17.6-57.7 15.7zm353.5.1c-16.7-1.2-31-7-38.5-15.5-12.3-14-11.6-36.1 1.5-48.9 11.3-11 29.4-16.2 72-20.5 27.3-2.8 31.5-4.9 31.5-16.3 0-6.2-1.8-10.5-6.3-14.4-8.5-7.4-29.7-8.2-42-1.5-5.3 2.9-9.1 8.2-10.2 14.5l-.7 3.8h-46.8l.7-4.8c.9-6.5 3.9-14 7.5-19.6 11.6-17.6 40.5-26.9 78.4-25.3 23.4 1 38.7 4.9 50.8 13 7.8 5.2 13 12.1 15.8 20.8 2.1 6.6 2.2 7.8 1.8 52.6-.3 43.7-.3 46 1.6 49.7 1.2 2.4 3 4.3 4.8 5 1.5.6 2.8 1.4 2.8 1.8s-11.7.8-25.9.8h-25.9l-2.2-6.5c-1.2-3.6-2.6-6.5-3.2-6.5-.6 0-2.8 1.5-4.9 3.3-8.3 7.1-25.1 13.3-38.9 14.2-4.1.3-8.8.6-10.5.8-1.9.1-7.7-.1-13.2-.5zm45.6-29.8c7.5-2.9 14.1-8.9 17.5-15.9 2.3-4.7 2.8-7.3 3.2-15.5.2-5.4 0-9.8-.5-9.8s-3.5.9-6.7 2-12.8 3.1-21.5 4.5c-17.2 2.7-22.9 4.3-27.8 8-7.9 6-8.6 17.6-1.6 23.9 1.2 1 4.5 2.7 7.4 3.8 7.3 2.7 22 2.1 30-1zm503.9 29.8c-22.5-1.5-37.8-9.6-44.7-23.7-3.8-7.8-4.4-20.3-1.4-28.4 5.8-15.4 22.3-24.6 53.5-29.7 3.3-.5 14.8-1.9 25.5-3 22.5-2.4 25.8-3.1 29.4-6.7 2.3-2.3 2.6-3.4 2.6-9.8 0-9.2-2.2-12.9-10-16.8-10.7-5.4-30.4-4.4-39.5 2-4.7 3.3-8.5 9.5-8.5 14v3.3h-47.2l.6-5.8c.4-3.4 2-8.6 4.1-12.9 9.9-20.3 35.7-31.3 73.3-31.4 41.7 0 66.6 11.2 74.8 33.6 1.7 4.5 1.8 9.1 1.9 53.1 0 47.3.1 48.2 2.1 51 1.2 1.6 3.1 3.3 4.3 3.9 1.2.6 2.5 1.4 2.8 1.8s-11.3.6-25.9.6h-26.5l-1.8-6.5c-1-3.6-2.2-6.5-2.7-6.5s-3.3 1.7-6.1 3.9c-14.8 11.1-35 15.7-60.6 14zm45.5-30.2c6.7-3.1 13.7-9.4 16.5-14.7 1-1.9 2.3-5.9 2.9-8.8 1.3-6.2 1.5-17.2.3-17.2-.5 0-3.5.9-6.7 2s-13.2 3.1-22.2 4.5c-17.6 2.6-23.8 4.7-29 9.8-6.9 6.7-6.2 18.1 1.5 22.9 6.1 3.8 11.2 4.9 21.3 4.6 7.7-.3 10.4-.8 15.4-3.1zm-1608.5 8.6c0-58.3-9.3-89.8-33.9-114.3-15.7-15.7-35-25.1-62.8-30.6-5.5-1.1-16.8-1.7-38.5-2.1l-30.8-.5V3.559h321v321h-155v-17.7zm89.7-143l-.3-94.8-94.8-.3-94.6-.2v27l3.8.6c40.7 6.6 66.6 16.8 92.3 36.1 33.5 25.2 56.2 64.3 64.6 111.5l2.7 14.9h26.6l-.3-94.8zm109.3 63.7v-96h196v192h-54v-155h-88v155h-54v-96zm598 26.5v-69.6l59.8.4c57.3.4 60.1.5 67.4 2.5 9.7 2.7 14.3 5.1 19.2 9.9 5.7 5.6 7.9 11.4 8 20.3.1 6.3-.4 8.4-2.7 13.2-4.6 9.3-13.5 15.8-26 18.9-2.6.6-4.8 1.5-4.8 1.9 0 .4 3.3 1.5 7.4 2.4 14.2 3.3 24.6 9.8 28.7 17.7 2.6 5 4.3 15.3 3.5 21.4-1.8 14.4-10.4 22.8-28.3 27.9-7.4 2.1-9.9 2.2-69.9 2.5l-62.3.3v-69.7zm99.3 40.6c6.4-2.1 9.9-5.9 10.4-11.7.9-10-5.3-15.7-18.8-17.4-4-.5-14.9-1-24.1-1h-16.8v32.2l22.8-.4c13.9-.3 24.1-.9 26.5-1.7zm-3.2-57.8c11.6-5.3 9.8-19.6-2.9-23.3-2.1-.6-12.7-1.4-23.6-1.7l-19.8-.6v28.6l20.8-.4c18.7-.4 21.4-.7 25.5-2.6zm297.9 30.7v-56h-55v-27h160v27h-55v112h-50v-56zm116-40v-96h179v37h-126v34.8l39.8.5c41.9.5 46.2.9 61.2 5.8 23.1 7.5 38.2 23.2 41.9 43.3 5 27.2-5.3 48.5-28.9 59.9-20.7 10-27.5 10.7-104.2 10.7h-62.8v-96zm120 57.8c13.1-3.4 19-9.7 18.9-20.4 0-10.8-4.7-17.1-16.2-21.7-5-2-7.2-2.2-37.6-2.5l-32.3-.3v47.4l30.8-.5c22.3-.4 32.4-1 36.4-2zm273-31.3v-69.5h50v53h61v-53h49v139h-49v-59h-61v59h-50v-69.5zm183 0v-69.5h49v28c0 22.4.3 28 1.3 28 .7 0 13.4-12.6 28.1-28l26.8-28h54.4l-5.5 5.3c-3 2.9-18.4 17.6-34.3 32.6l-28.8 27.3 13.3 13.9c7.3 7.6 23.3 24.2 35.6 36.9l22.4 23h-57.2l-27.1-30.5c-14.9-16.8-27.5-30.5-28.1-30.5-.6 0-1 11.7-1 30.5v30.5h-49l.1-69.5z" fill="#75b028"/><path d="M7.647 262.059v-62.5h125v125h-125v-62.5z"/></symbol>
    <symbol id="search" xmlns="http://www.w3.org/2000/svg" viewBox="0 0 27 27.5"><path d="M4.129 4.3c4.9-4.9 12.8-4.9 17.6 0 3.6 3.6 4.5 8.9 2.7 13.4-.1.1-.1.3-.3.4-.4.4-1.2.4-1.6 0-.3-.3-.4-.8-.3-1.2 1.5-3.7.8-8.1-2.2-11.1-4-4-10.5-4-14.5 0s-4 10.5 0 14.5 10.5 4 14.5 0c.1-.1.2-.2.4-.2.4-.2.9-.1 1.2.2l4.9 4.9c.4.4.4 1.1 0 1.6-.4.4-1.1.4-1.6 0l-4.1-4.2c-4.9 4.1-12.2 3.9-16.8-.8-4.8-4.8-4.8-12.7.1-17.5zm10 2c0 .6-.5 1.1-1.1 1.1-.4 0-1 0-1.8.2-.3.1-1.3.4-2.2 1.2-.7.7-1.1 1.4-1.2 1.7-.2.4-.3.8-.4 1-.2.6-.8 1-1.4.8-.6-.2-1-.8-.8-1.4.2-.7.7-2.2 2.1-3.5.5-.5 1.6-1.4 3.2-1.9 1-.3 1.9-.4 2.5-.3.6-.1 1.1.5 1.1 1.1z"/></symbol>
    <symbol id="shopcart" xmlns="http://www.w3.org/2000/svg" viewBox="0 0 59.9 54"><path d="M48.5 39.5h-23c-7.4 0-9.8-7.1-9.9-7.4L8.6 8c-1-3.8-5.9-3.5-6-3.5-1.1.1-2-.8-2.1-1.9S1.3.6 2.4.5C5.3.3 11 1.4 12.5 7l7 23.9c0 .1 1.6 4.6 6.1 4.6h23c1.1 0 2 .9 2 2s-1 2-2.1 2zm4.9-8.2l5.7-14c0-.1 0-.1.1-.2.9-2.9.7-5.3-.6-7-1.8-2.5-4.9-2.5-5.3-2.5l-34.8-.1c-1.1 0-2 .9-2 2s.9 2 2 2h34.7s1.5 0 2.1.9c.6.8.3 2.3 0 3.4l-5.6 13.9c-.4 1 .1 2.2 1.1 2.6.2.2.4.2.7.2.8 0 1.5-.5 1.9-1.2zm3.8-14.8zM30.5 48.3c0-3.2-2.6-5.8-5.8-5.8s-5.8 2.6-5.8 5.8 2.6 5.8 5.8 5.8 5.8-2.7 5.8-5.8zm-4 0c0 1-.8 1.8-1.8 1.8s-1.8-.8-1.8-1.8.8-1.8 1.8-1.8 1.8.8 1.8 1.8zm25 0c0-3.2-2.6-5.8-5.8-5.8s-5.8 2.6-5.8 5.8 2.6 5.8 5.8 5.8 5.8-2.7 5.8-5.8zm-4 0c0 1-.8 1.8-1.8 1.8s-1.8-.8-1.8-1.8.8-1.8 1.8-1.8 1.8.8 1.8 1.8z"/></symbol>
    <symbol id="user" xmlns="http://www.w3.org/2000/svg" viewBox="0 0 28 30.7"><path d="M6.5 18.871c.6 0 1.1.5 1.1 1.2 0 .4-.2.8-.5 1-2.7 1.9-4.5 4.9-4.8 8.4 0 .6-.5 1.2-1.1 1.2-.7-.1-1.2-.6-1.2-1.3.3-4.3 2.6-8 5.8-10.3.2-.1.4-.2.7-.2m20.9 10.5v0c0 .7-.5 1.2-1.1 1.2-.6 0-1.1-.5-1.1-1.2-.6-5.9-5.5-10.5-11.4-10.5-5 0-9.1-4.1-9.1-9.2s4-9.3 9-9.3 9.1 4.1 9.1 9.2c0 1.9-.6 3.7-1.6 5.1-.1.2-.3.4-.5.6l-.2.2c-.1.2-.3.3-.4.5-.1.1-.2.2-.4.3-.2.2-.4.3-.6.5-.2.1-.4.3-.6.4l-.1.1c4.8 1.8 8.3 6.3 8.8 11.7.2.2.2.3.2.4m-13.7-12.8h.7c3.4-.4 6.1-3.3 6.1-6.9 0-3.8-3-6.9-6.8-6.9H13c-3.4.3-6.1 3.3-6.1 6.8 0 3.9 3.1 7 6.8 7"/></symbol>
    <symbol id="visa" xmlns="http://www.w3.org/2000/svg" viewBox="0 0 1000.046 323.653"><path d="M433.352 318.984h-81.01l50.67-313.305h81.006zM727.023 13.339c-15.978-6.34-41.322-13.34-72.66-13.34-80 0-136.336 42.661-136.682 103.653-.664 45 40.335 69.994 71 84.998 31.341 15.332 41.995 25.34 41.995 39.006-.319 20.989-25.326 30.664-48.65 30.664-32.343 0-49.673-4.988-76.009-16.666l-10.667-5.005-11.337 70.33c19 8.656 54.006 16.337 90.35 16.674 85.002 0 140.34-42 140.996-106.997.324-35.666-21.326-62.994-68-85.325-28.334-14.336-45.686-24.002-45.686-38.67.332-13.334 14.677-26.991 46.661-26.991 26.336-.67 45.686 5.661 60.345 11.996l7.327 3.327 11.017-67.654zM834.694 207.991c6.671-17.999 32.343-87.66 32.343-87.66-.337.669 6.658-18.331 10.658-29.995l5.662 26.996s15.34 74.995 18.672 90.66h-67.335zM934.69 5.68H872.03c-19.323 0-34.004 5.662-42.341 25.995L709.357 318.98h85.002s13.994-38.669 17.002-46.997h104.011c2.326 11 9.666 46.997 9.666 46.997h75.008L934.691 5.68zM284.678 5.68l-79.336 213.643-8.67-43.33C182.006 125.997 136.005 71.677 84.67 44.667l72.669 273.985h85.667L370.34 5.679h-85.662z"/><path d="M131.672 5.68H1.333L0 12.01c101.672 25.999 169.008 88.67 196.673 163.997L168.339 32.015c-4.665-20.01-19-25.676-36.667-26.336z" fill="#989898"/></symbol>
    <symbol id="favorite" xmlns="http://www.w3.org/2000/svg" viewBox="0 0 29.4 27.8"><path d="M25.143 1.571c-.2-.2-.4-.2-.7-.2-.6 0-1.2.5-1.2 1.1 0 .4.2.8.5 1 .3.2.6.4.7.5.4.2.8.6 1.3 1.2.2.3.5.7.7 1.2.1.3.4 1 .5 1.9.1.6 0 1.1 0 1.6-.1.8-.2 1.4-.3 1.5-.1.5-.4 1.2-.9 2 0 .1-.1.2-.2.3 0 0-.3.5-.7 1.1-.8 1.2-1.9 2.4-1.9 2.4-.9 1.1-1.6 1.8-2.9 3.2-.5.6-.9 1-1.2 1.3l-1.2 1.2-.8.8c-.5.5-.9.8-1.2 1.1-.1.1-.3.2-.3.2-.1 0-.2.1-.3.2h-.2-.1H14.443c-.1 0-.3-.1-.3-.2-.1-.1-.2-.1-.3-.2-.3-.2-.7-.6-1.2-1.1l-.8-.8-1.2-1.2c-.3-.3-.7-.7-1.2-1.3-1.3-1.4-2-2.2-2.9-3.2 0 0-1-1.2-1.9-2.4-.4-.6-.7-1.1-.7-1.1-.1-.1-.2-.3-.2-.3-.5-.8-.7-1.5-.9-2 0-.1-.2-.7-.3-1.5 0-.4-.1-.9 0-1.6.1-.9.4-1.6.5-1.9 0-.5.3-.9.5-1.2.4-.6.8-1 1.2-1.2.1-.1.4-.3.7-.5.1-.1.6-.3 1.1-.6.2-.1.4-.1.5-.2.1 0 .2-.1.4-.1.1 0 .4-.1.8-.1H9.543c.2 0 .4 0 .7.1.2 0 .5.1.9.2.1 0 .3.1.7.3.1.1.4.2.7.3.3.2.5.3.6.4.3.2.6.4.8.6l.4.2c.1 0 .2.1.2.1h.8s.1 0 .2-.1c.2-.1.3-.2.4-.2.2-.2.5-.4.8-.6.1-.1.3-.3.6-.4.3-.2.5-.3.7-.3.3-.2.6-.2.7-.3.4-.1.7-.2.9-.2.3 0 .5-.1.7-.1h.1c.6 0 1.2-.5 1.2-1.1 0-.6-.5-1.1-1.2-1.1h-.2c-1.9.1-3.7.9-5.1 2-1.5-1.3-3.5-2-5.7-2-5.4-.1-9.4 3.9-9.4 8.7v1c0 .2 0 .4.1.6.3 2.3 1.3 5.4 10 14.1 2.1 2.1 3.1 3 4.5 3 1.5 0 2.5-.9 4.7-3.2 8.3-8.4 9.4-11.3 9.7-13.6 0-.2.1-.4.1-.6 0-.3.1-.5.1-.8v-.4c0-3.2-1.6-5.9-4.1-7.5"/></symbol>
    <symbol id="viber" xmlns="http://www.w3.org/2000/svg" viewBox="0 0 14 14.8"><path d="M12.4 1.4C12.1 1.1 10.6 0 7.3 0c0 0-3.9-.2-5.8 1.5C.4 2.6 0 4.1 0 6s-.1 5.5 3.4 6.5V14s0 .6.4.7c.5.1.8-.3 1.2-.8.3-.3.6-.7.9-1 2.4.2 4.2-.3 4.4-.3.5-.2 3.2-.5 3.6-4.1.4-3.7-.3-6-1.5-7.1zm.4 6.9c-.4 3-2.6 3.2-3 3.3-.2.1-1.8.5-3.8.3 0 0-1.5 1.8-2 2.3-.1.1-.2.1-.2.1-.1 0-.1-.1-.1-.3v-2.5C.9 10.7 1 7.7 1.1 6.1s.3-2.9 1.2-3.8C3.9.8 7.2 1.1 7.2 1.1c2.8 0 4.1.9 4.4 1.1 1.1.9 1.6 3 1.2 6.1zm-5.3.2s.3 0 .4-.2l.3-.3c.2-.2.5-.3.8-.2.4.2 1 .6 1.3.9.2.2.3.4.1.7-.1.3-.3.5-.6.7-.3.2-.6.4-.9.2-.6-.2-2-.9-2.9-1.6-1.5-1.1-2.6-3-2.9-4.1-.1-.3 0-.6.3-.9.2-.2.5-.4.7-.6.3-.1.5 0 .7.2.2.2.6.7.9 1.3.2.3.1.6-.1.8l-.3.2c-.2.2-.2.4-.2.4s.5 2 2.4 2.5zm3.1-1.7c.1 0 .2-.1.2-.2 0-1.2-.4-2.2-1.1-2.9-.8-.7-1.7-1-2.8-1.1-.1 0-.2.1-.2.2s.1.2.2.2c1 0 1.8.3 2.5 1 .7.6 1 1.5 1 2.7 0 .1.1.1.2.1zm-1-.3c-.1 0-.2-.1-.2-.2 0-.6-.2-1.2-.6-1.6-.3-.4-.9-.7-1.6-.7-.1 0-.2-.1-.2-.2s.1-.2.2-.2c.8.1 1.5.3 1.9.8.5.5.7 1.1.7 1.8 0 .2-.1.3-.2.3zm-1-.4c-.1 0-.2 0-.2-.1 0-.6-.3-.9-.9-1-.1 0-.2-.1-.2-.2s.1-.2.2-.2c.8 0 1.3.5 1.3 1.3 0 .1-.1.2-.2.2z"/></symbol>
    <symbol id="close" xmlns="http://www.w3.org/2000/svg" viewBox="0 0 26.3 27.2"><path d="M2.4.7l23.9 23.9-2.1 2.1-10.9-10.8L2.4 26.8.3 24.6l10.9-10.9L.3 2.8 2.4.7zm24 2.1L24.2.7l-8.8 8.8 2.1 2.1 8.9-8.8z"/></symbol>
    <symbol id="fail" xmlns="http://www.w3.org/2000/svg" viewBox="0 0 62.9 63.9"><circle cx="3.8" cy="32.2" r="3"/><circle cx="7.8" cy="46.2" r="3"/><circle cx="7.8" cy="18.2" r="3"/><circle cx="17.8" cy="8.2" r="3"/><path d="M31.8 1.2v6c13.8 0 25 11.2 25 25s-11.2 25-25 25v6c17.1 0 31-13.9 31-31s-13.9-31-31-31z"/><circle cx="17.8" cy="56.2" r="3"/><path d="M22 21.1l20.2 20.2-2.5 2.5-8.7-8.3-8.3 8.5-2.5-2.6 8.6-8.6-9.2-9.2 2.4-2.5zm21.1 2.6l-2.7-2.5-7.4 7.4 2.4 2.4 7.7-7.3z"/></symbol>
    <symbol id="ok" xmlns="http://www.w3.org/2000/svg" viewBox="0 0 63.3 63.1"><path d="M26.5 41.2c.5.5 1.3.8 2 .8h.2c.8 0 1.5-.4 2.1-1l15-17-4.5-4-13 14.7-7.8-7-4 4.5 10 9z"/><circle cx="3.5" cy="32" r="3"/><circle cx="7.5" cy="46" r="3"/><circle cx="7.5" cy="18" r="3"/><circle cx="17.5" cy="8" r="3"/><path d="M31.5 1v6c13.8 0 25 11.2 25 25s-11.2 25-25 25v6c17.1 0 31-13.9 31-31S48.6 1 31.5 1z"/><circle cx="17.5" cy="56" r="3"/></symbol>
    <symbol id="more-icon" xmlns="http://www.w3.org/2000/svg" viewBox="0 0 22.1 22.1"><path d="M2.874 3.705l.708-.707 3.535 3.535-.707.707zM2.86 18.54l3.535-3.536.707.707-3.535 3.535zM14.88 6.548l3.536-3.535.707.707-3.535 3.535zM10.5.1h1v5h-1zM0 10.6h5v1H0zM15.638 16.433l.708-.707 2.828 2.828-.707.707zM10.5 17.1h1v5h-1zM17 10.6h5v1h-5z"/></symbol>

    <symbol id="bike" xmlns="http://www.w3.org/2000/svg" viewBox="0 0 64 41"><path d="M23.3 4.3c0-1.1-.8-2-1.8-2.2L15.1.9c-1.5-.4-3 .5-3.5 2-.1.4-.2.9-.2 1.4 0 .5.1.9.2 1.4.4 1.5 2 2.4 3.5 2l6.4-1.2c1-.2 1.8-1.1 1.8-2.2zM27.5 29.1c0-2.6 2.1-4.6 4.6-4.6s4.6 2.1 4.6 4.6c0 2.6-2.1 4.6-4.6 4.6-2.6 0-4.6-2-4.6-4.6zm3.1 0c0 .8.6 1.5 1.4 1.5.8 0 1.5-.6 1.5-1.4 0-.8-.6-1.5-1.4-1.5-.8 0-1.5.6-1.5 1.4zM51.7 17h-.6l1.5 3.7c4.4.5 7.5 4.5 7.1 8.8s-4.5 7.5-8.8 7.1-7.5-4.5-7.1-8.8c.2-1.5.8-2.9 1.7-4.1L44 19.9c-4.9 4.3-5.3 11.7-1.1 16.6s11.7 5.3 16.6 1.1 5.3-11.7 1.1-16.6c-2.3-2.6-5.5-4-8.9-4zM20.8 20.6L19 24.2c.1.2.3.5.4.7h4c-.6-1.6-1.5-3.1-2.6-4.3zM19.4 32.6c-2.2 3.8-7 5.2-10.9 3-3.8-2.2-5.2-7-3-10.9 1.4-2.4 3.8-3.9 6.6-4.1l1.8-3.6C7.4 16.2 1.5 20.7.6 27.1s3.6 12.4 10.1 13.2c5.5.8 10.8-2.5 12.7-7.8l-4 .1z"/><path d="M53.4 28L44.6 6.3h4.9c1.1 0 1.9-.9 1.9-1.9 0-.3-.1-.6-.2-.9-.3-.6-1-1-1.7-1h-7.7c-.6 0-1.2.3-1.5.8-.4.5-.4 1.2-.2 1.7L42 9.7H22.3l-.2-.3v-.1l-.5-1-3.7.9 1.2 2.2-8.4 16.5c-.1.1-.1.3-.2.5v.1c-.2 1 .5 2 1.5 2.2H25.7c-.1-.5-.2-1-.2-1.5 0-.8.1-1.5.4-2.3H15.3l5.8-11.4 1.3 2.5 4 7.7c.7-1.1 1.7-2 2.9-2.5l-5.1-9.7h16.5l-.8 1-6.9 8.1c1.3.2 2.5.7 3.5 1.6l7.7-9.1L50 29.4c.4.9 1.5 1.4 2.4 1 .4-.2.7-.4.9-.8.3-.5.3-1.1.1-1.6z"/></symbol>
    <symbol id="kick-scooter" xmlns="http://www.w3.org/2000/svg" viewBox="0 0 64 50.7"><path d="M11.9 42.4c-.5 1.7-2.1 3-3.9 3-.3 0-.7 0-1-.1-2.1-.6-3.4-2.8-2.8-4.9L6 33.7c-3.4.9-5.9 4-5.9 7.7 0 4.4 3.6 8 8 8s8-3.6 8-8c0-2.2-.9-4.2-2.4-5.7l-1.8 6.7zM56 33.3c-3 0-5.5 1.6-6.9 4H56c2.2 0 4 1.8 4 4s-1.8 4-4 4h-6.9c1.4 2.4 4 4 6.9 4 4.4 0 8-3.6 8-8s-3.6-8-8-8z"/><path d="M58 41.3c0-1.1-.9-2-2-2H23l-9-12.7 4-14.8c0-.2.1-.3.1-.5v-8c0-1.1-.9-2-2-2h-6c-1.1 0-2 .9-2 2v2c0 1.1.9 2 2 2s2-.9 2-2h2V11l-8 29.8c-.3 1.1.3 2.2 1.4 2.4.2 0 .3.1.5.1.9 0 1.7-.6 1.9-1.5l2.7-10.2 7.7 10.8c.4.5 1 .8 1.6.8h34c1.2.1 2.1-.8 2.1-1.9z"/></symbol>
    <symbol id="helmet" xmlns="http://www.w3.org/2000/svg" viewBox="0 0 69.6 66.8"><path d="M42.9 53.9c0 6.6-5.4 12-12 12s-12-5.4-12-12v-.4C8.7 51.6.9 42.6.9 31.9v-3c0-15.5 12.5-28 28-28h12c15.5 0 28 12.5 28 28 0 1.1-.9 2-2 2h-8.3c-3.6 0-6.8 2.5-7.7 6l-4 15.5c-.2.9-1 1.5-1.9 1.5h-2.1 0zm-5-1.4c-4.1-.8-6.9-1.7-9.9-4.5l-1.1 4.3c-.2.9-1 1.5-1.9 1.5h0c.5 3.4 1.6 7 6 7s7-3.6 7-8v-.3zm-.3-20.6c-3.6 0-5.8 1.5-6.7 5l-.7 5.6c4.3 3 6.4 5.4 11.7 5.4h.5l2.7-10c.5-1.9.4-4.6 1.7-6h-9.2zm4.9-24.6H27.9C17.3 7.3 6.6 17.9 6.6 28.4v2.4c0 7.9 7.5 17.3 15.5 17.3h.4l2.9-14.2c1.1-4.2 4.9-7.1 9.3-7.1h28C61.9 17 52.6 7.3 42.5 7.3z" stroke="#000" stroke-miterlimit="10"/></symbol>
    <symbol id="wheel" xmlns="http://www.w3.org/2000/svg" viewBox="0 0 51 51"><path d="M25.5.6C11.7.6.5 11.8.5 25.6s11.2 25 25 25 25-11.2 25-25-11.2-25-25-25zm19.7 12.6c.4-.2.9-.1 1.2.3.2.4.1.9-.3 1.2-.4.2-.9.1-1.2-.3-.3-.5-.1-1 .3-1.2zm-.8 2.9c.4-.2.9-.1 1.2.3.2.4.1.9-.3 1.2-.4.2-.9.1-1.2-.3-.3-.4-.1-.9.3-1.2zm-.8 3c.4-.2.9-.1 1.2.3.2.4.1.9-.3 1.2-.4.2-.9.1-1.2-.3-.3-.5-.1-1 .3-1.2zm-21.8 4.5L18.3 9.8c2.2-1 4.6-1.6 7.2-1.6h.6l-4.3 15.4zm.1 4.2L8.2 23.9c.3-2.8 1.2-5.3 2.6-7.6l11.1 11.5zm5.2-19.5c2.8.3 5.3 1.2 7.6 2.6L23.3 22l3.8-13.7zm-1.6 14.9c1.3 0 2.4 1.1 2.4 2.4S26.8 28 25.5 28s-2.4-1.1-2.4-2.4c0-1.3 1.1-2.4 2.4-2.4zm2.2 6l-3.9 13.7c-2.8-.3-5.3-1.2-7.6-2.6l11.5-11.1zm1.5-1.6l3.5 13.8c-2.2 1-4.6 1.6-7.2 1.6h-.6l4.3-15.4zm-.1-4.2l13.7 3.9c-.3 2.8-1.2 5.3-2.6 7.6L29.1 23.4zm-1.6-1.5l13.8-3.5c1 2.2 1.6 4.6 1.6 7.2v.6l-15.4-4.3zm14.1-7.5c-.3.4-.8.4-1.2.1s-.4-.8-.1-1.2.8-.4 1.2-.1c.3.3.4.8.1 1.2zm-.3-3.1c-.3.4-.8.4-1.2.1s-.4-.8-.1-1.2c.3-.4.8-.4 1.2-.1.4.3.4.9.1 1.2zm-1.6-4.1c.3-.4.8-.4 1.2-.1.4.3.4.8.1 1.2-.3.4-.8.4-1.2.1-.3-.3-.4-.8-.1-1.2zm1.1 10.3l-15.5 3.9 10.2-9.9c2.2 1.5 4.1 3.6 5.3 6zm-4.6-9.1c.4.2.7.7.5 1.1s-.7.7-1.1.5c-.4-.2-.7-.7-.5-1.1.2-.4.7-.6 1.1-.5zM35 5.7c.4.2.7.7.5 1.1-.2.4-.7.7-1.1.5-.4-.2-.7-.7-.5-1.1.1-.4.6-.7 1.1-.5zm-2.4-2.2c.2-.4.7-.7 1.1-.5.4.2.7.7.5 1.1-.2.4-.7.7-1.1.5s-.7-.7-.5-1.1zm-2.9 2.3c.5 0 .9.4.9.9s-.4.9-.9.9-.9-.4-.9-.9.5-.9.9-.9zm-2.1-2.1c.5 0 .9.4.9.9s-.4.9-.9.9-.9-.4-.9-.9.4-.9.9-.9zm-2.2-2.2c.5 0 .9.4.9.9s-.4.9-.9.9-.9-.4-.9-.9.5-.9.9-.9zm-2.7 4.1c.4-.2.9.1 1.1.5s-.1.9-.5 1.1c-.4.2-.9-.1-1.1-.5-.2-.5.1-1 .5-1.1zM20 4.3c.4-.2.9.1 1.1.5s-.1.9-.5 1.1c-.4.2-.9-.1-1.1-.5-.2-.5 0-1 .5-1.1zM17.2 3c.4-.2.9.1 1.1.5s-.1.9-.5 1.1c-.4.2-.9-.1-1.1-.5-.2-.5.1-.9.5-1.1zM16 7.7c.4-.3.9-.3 1.2.1.3.4.3.9-.1 1.2s-.9.3-1.2-.1-.2-.9.1-1.2zm-3-.2c.4-.3.9-.3 1.2.1.3.4.3.9-.1 1.2s-.9.3-1.2-.1c-.3-.4-.3-.9.1-1.2zm4.4 2.8l3.9 15.5-9.9-10.2c1.5-2.2 3.6-4.1 6-5.3zM12 12.9c-.2.4-.8.5-1.2.3-.4-.2-.5-.8-.3-1.2.2-.4.8-.5 1.2-.3.3.3.5.8.3 1.2zm-2-5.7c.4-.3.9-.3 1.2.1s.3.9-.1 1.2-.9.3-1.2-.1-.3-.9.1-1.2zm-2.5 5.6c.2-.4.8-.5 1.2-.3s.5.8.3 1.2c-.2.4-.8.5-1.2.3-.4-.2-.5-.8-.3-1.2zm-2.9.8c.2-.4.8-.5 1.2-.3s.5.8.3 1.2c-.2.4-.8.5-1.2.3-.4-.3-.5-.8-.3-1.2zm2.4 11c.1.5-.2.9-.7 1-.5.1-.9-.2-1-.7s.2-.9.7-1c.4-.1.9.2 1 .7zM5.2 19c.5.1.8.5.7 1s-.5.8-1 .7c-.5-.1-.8-.5-.7-1 .1-.4.6-.7 1-.7zm-2.4 1.8c.5.1.8.5.7 1s-.5.8-1 .7c-.5-.1-.8-.5-.7-1 .1-.5.5-.8 1-.7zm0 9.7c-.5.1-.9-.2-1-.7s.2-.9.7-1 .9.2 1 .7-.3 1-.7 1zm.7-3.1c-.1-.5.2-.9.7-1s.9.2 1 .7-.2.9-.7 1c-.4 0-.9-.3-1-.7zM5.8 38c-.4.2-.9.1-1.2-.3-.2-.4-.1-.9.3-1.2.4-.2.9-.1 1.2.3.3.5.1 1-.3 1.2zm.8-2.9c-.4.2-.9.1-1.2-.3-.2-.4-.1-.9.3-1.2.4-.2.9-.1 1.2.3.3.4.1.9-.3 1.2zm.8-3c-.4.2-.9.1-1.2-.3-.2-.4-.1-.9.3-1.2.4-.2.9-.1 1.2.3.3.5.1 1-.3 1.2zm0-13.1c-.5-.1-.8-.5-.7-1s.5-.8 1-.7c.5.1.8.5.7 1-.1.5-.5.8-1 .7zm.8 6l15.3 4.3-13.8 3.5c-1-2.2-1.6-4.6-1.6-7.2 0-.2.1-.4.1-.6zm1.2 11.8c.3-.4.8-.4 1.2-.1s.4.8.1 1.2-.8.4-1.2.1c-.3-.3-.4-.8-.1-1.2zm.3 3.1c.3-.4.8-.4 1.2-.1s.4.8.1 1.2-.8.4-1.2.1-.4-.9-.1-1.2zm1.6 4.1c-.3.4-.8.4-1.2.1-.4-.3-.4-.8-.1-1.2s.8-.4 1.2-.1c.3.3.4.8.1 1.2zm-1.1-10.3l15.5-3.9-10.2 9.9c-2.2-1.5-4.1-3.6-5.3-6zm4.6 9.1c-.4-.2-.7-.7-.5-1.1.2-.4.7-.7 1.1-.5s.7.7.5 1.1c-.2.4-.7.6-1.1.5zm1.2 2.7c-.4-.2-.7-.7-.5-1.1.2-.4.7-.7 1.1-.5s.7.7.5 1.1c-.1.4-.6.7-1.1.5zm2.4 2.2c-.2.4-.7.7-1.1.5s-.7-.7-.5-1.1c.2-.4.7-.7 1.1-.5s.7.7.5 1.1zm2.9-2.3c-.5 0-.9-.4-.9-.9s.4-.9.9-.9.9.4.9.9-.5.9-.9.9zm2.1 2.1c-.5 0-.9-.4-.9-.9s.4-.9.9-.9.9.4.9.9-.4.9-.9.9zm2.2 2.2c-.5 0-.9-.4-.9-.9s.4-.9.9-.9.9.4.9.9-.5.9-.9.9zm2.7-4.1c-.4.2-.9-.1-1.1-.5-.2-.4.1-.9.5-1.1.4-.2.9.1 1.1.5.2.5-.1 1-.5 1.1zm2.7 1.3c-.4.2-.9-.1-1.1-.5-.2-.4.1-.9.5-1.1.4-.2.9.1 1.1.5.2.5 0 1-.5 1.1zm2.8 1.3c-.4.2-.9-.1-1.1-.5-.2-.4.1-.9.5-1.1.4-.2.9.1 1.1.5.2.5-.1.9-.5 1.1zm1.2-4.7c-.4.3-.9.3-1.2-.1-.3-.4-.3-.9.1-1.2.4-.3.9-.3 1.2.1.3.3.2.9-.1 1.2zm3 .2c-.4.3-.9.3-1.2-.1-.3-.4-.3-.9.1-1.2.4-.3.9-.3 1.2.1.3.4.3.9-.1 1.2zm-4.4-2.8l-3.9-15.5 9.9 10.2c-1.5 2.2-3.6 4.1-6 5.3zm5.4-2.6c.2-.4.8-.5 1.2-.3s.5.8.3 1.2-.8.5-1.2.3c-.3-.3-.5-.8-.3-1.2zm2 5.7c-.4.3-.9.3-1.2-.1-.3-.4-.3-.9.1-1.2s.9-.3 1.2.1.3.9-.1 1.2zm2.5-5.6c-.2.4-.8.5-1.2.3s-.5-.8-.3-1.2.8-.5 1.2-.3c.4.2.5.8.3 1.2zm-.2-4.5c-.5-.1-.8-.5-.7-1s.5-.8 1-.7.8.5.7 1-.6.8-1 .7zm.7-7.3c-.1-.5.2-.9.7-1 .5-.1.9.2 1 .7s-.2.9-.7 1c-.4.1-.9-.2-1-.7zm2.4 11c-.2.4-.8.5-1.2.3s-.5-.8-.3-1.2.8-.5 1.2-.3c.4.3.5.8.3 1.2zm-.6-5.4c-.5-.1-.8-.5-.7-1s.5-.8 1-.7.8.5.7 1c-.1.4-.6.7-1 .7zm1-7.4c-.5.1-.9-.2-1-.7s.2-.9.7-1 .9.2 1 .7c0 .5-.3.9-.7 1zm1.4-4.1c.5-.1.9.2 1 .7s-.2.9-.7 1-.9-.2-1-.7.3-1 .7-1zm0 9.7c-.5-.1-.8-.5-.7-1s.5-.8 1-.7.8.5.7 1c-.1.5-.5.8-1 .7z"/></symbol>
    <symbol id="grid" xmlns="http://www.w3.org/2000/svg" viewBox="0 0 30.6 30.6" xml:space="preserve"><style>.grid-st{stroke:inherit;stroke-width:3;stroke-linecap:round;stroke-linejoin:round}</style><path class="grid-st" d="M7.2 1.9h3.2c.9 0 1.6.7 1.6 1.6V12H3.4c-.9 0-1.6-.7-1.6-1.6V7.2c.1-2.9 2.5-5.3 5.4-5.3zM20.4 1.9h3.2c2.9 0 5.3 2.4 5.3 5.3v3.2c0 .9-.7 1.6-1.6 1.6h-8.5V3.4c0-.8.7-1.5 1.6-1.5zM3.4 18.8h8.5v8.5c0 .9-.7 1.6-1.6 1.6H7.2c-2.9 0-5.3-2.4-5.3-5.3v-3.2c0-.9.7-1.6 1.5-1.6zM18.8 18.8h8.5c.9 0 1.6.7 1.6 1.6v3.2c0 2.9-2.4 5.3-5.3 5.3h-3.2c-.9 0-1.6-.7-1.6-1.6v-8.5z"/></symbol>
    <symbol id="list" xmlns="http://www.w3.org/2000/svg" viewBox="0 0 21 20"><path fill-rule="evenodd" d="M20 2H1a1 1 0 010-2h19a1 1 0 010 2zM1 6h16.531a1 1 0 110 2H1a1 1 0 010-2zm0 6h12.812a1 1 0 110 2H1a1 1 0 010-2zm0 6h7.875a1 1 0 010 2H1a1 1 0 010-2z"/></symbol>
    <symbol id="map-icon" xmlns="http://www.w3.org/2000/svg" viewBox="0 0 21 19.2"><path d="M9.6 10.3v4.5c0 .5.4.8.9.8s.8-.4.8-.8v-4.5c2.8-.5 4.7-3.1 4.3-6S12.5-.4 9.6 0 4.9 3.1 5.3 6c.4 2.3 2.2 4 4.3 4.3zm.9-8.5c1.9 0 3.5 1.6 3.5 3.5s-1.6 3.5-3.5 3.5C8.6 8.7 7 7.2 7 5.2c0-1.9 1.6-3.4 3.5-3.4z"/><path d="M14 11.6c-.5-.1-.9.3-.9.7-.1.5.3.9.7.9 3.6.4 5.5 1.5 5.5 2s-3.1 2.1-8.8 2.1-8.8-1.6-8.8-2.2 1.9-1.5 5.5-2c.4-.2.7-.7.5-1.1-.1-.3-.4-.5-.7-.5-3.8.4-7 1.6-7 3.6 0 2.6 5.4 3.8 10.5 3.8s10.5-1 10.5-3.6c0-2-3.2-3.2-7-3.7z"/></symbol>

    <symbol id="cash" xmlns="http://www.w3.org/2000/svg" x="0" y="0" viewBox="0 0 182.7 64.9" xml:space="preserve"><style>.cash-st0{fill:none;stroke-width:2.4;stroke-miterlimit:10}</style><path d="M128.3 24.9l4.3-1.7-4.4-3.1 4-1.6L107 .6 91.5 5.4l2.1 1.8 12.9-4 20.6 14.7-13.9 5.7h-.1l-1.2-1 13-5.1-18.6-13.3L94.5 8l-.9-.8-2.1-1.8L90 4.2l-18.7 6.1 1.2 1-20.8 6.4 3.9 3.5-3.9 1.2 3.9 3.5-3.9 1.2 3.9 3.5-3.9 1.2 3.9 3.5-3.9 1.2 3.9 3.5-3.9 1.2L76.8 64l17.6-7.2v1.7l19-6.7v-2.3l18.9-7.6-4.2-3 4.3-1.7-4.3-3 4.3-1.7-4.3-3 4.3-1.7-4.1-2.9zM105.9 6.8L120 16.9l-10.2 4-2.2-1.8c-.7-5.7-6.3-7.7-9.9-8.3l-1.2-1 9.4-3zm-31.2 6.3l1.1.8-16.7 5.3L77.9 36l16.6-6.6v1.3l-17.4 7.2-21-19.1 18.6-5.7zm15.5 12.4l2.6 2.1-14.4 5.7-14.7-13.1 14.2-4.5 1 .8c-.1 2.7.6 8.6 11.3 9zm-13.6 15l17.9-7.4v2.4l-17.2 7-21.1-19.1 1.2-.4 19.2 17.5zm.3 4.8l17.6-7.2v2.2l-17.2 7-21.1-19.1 1.3-.4 19.4 17.5zm0 4.7l17.6-7.2V45l-17.2 7-21.1-19 1.3-.4L76.9 50zm0 4.8l17.6-7.2v2.2l-17.2 7-21.1-19.1 1.3-.4 19.4 17.5zm.4 6.8L56.2 42.5l1.4-.4 19.2 17.5 17.7-7.2v2.2l-17.2 7zm33.2-34.7v23.7l-13 4.9V28.7l-2.5-2-14.5-11.9-2.1-1.8-1-.8-1.3-1 13.3-4.4L90.9 8l.9.8 2.1 1.8 13.4 11.3 1.9 1.7 1.2 1.4.1 1.9zm17.1.5L113.5 33v-2.2l12-4.8 2.1 1.4zm-2.1-6.3l2.1 1.5-14 5.6v-2.3l11.9-4.8zm2.1 20.6l-14.1 5.6v-2.2l12-4.8 2.1 1.4zm0-4.8l-14.1 5.6v-2.2l12-4.8 2.1 1.4zm0-4.7l-14.1 5.6v-2.2l12-4.8 2.1 1.4z"/><path class="cash-st0" d="M182.7 34.3h-37.5M37.5 34.3H0"/></symbol>
    <symbol id="cashless" xmlns="http://www.w3.org/2000/svg" x="0" y="0" viewBox="0 0 1194.6 436" xml:space="preserve"><style>.cashless-st0{fill:none;stroke-width:20;stroke-miterlimit:10}</style><path class="cashless-st0" d="M651.2 426.8H0M1195.1 426.8H543.9"/><path d="M793.7 95.5c15.7 0 28.4-12.7 28.4-28.4s-12.7-28.4-28.4-28.4-28.4 12.7-28.4 28.4c.1 15.7 12.8 28.4 28.4 28.4zm0-37.9c5.2 0 9.5 4.2 9.5 9.5s-4.2 9.5-9.5 9.5c-5.2 0-9.5-4.2-9.5-9.5.1-5.2 4.3-9.5 9.5-9.5zM585.7 227.9h37.8c5.2 0 9.5-4.2 9.5-9.5v-47.3c0-5.2-4.2-9.5-9.5-9.5h-37.8c-5.2 0-9.5 4.2-9.5 9.5v47.3c0 5.2 4.2 9.5 9.5 9.5zm9.4-47.3H614V209h-18.9v-28.4zM774.8 227.9h37.8c5.2 0 9.5-4.2 9.5-9.5v-47.3c0-5.2-4.2-9.5-9.5-9.5h-37.8c-5.2 0-9.5 4.2-9.5 9.5v47.3c.1 5.2 4.3 9.5 9.5 9.5zm9.5-47.3h18.9V209h-18.9v-28.4zM633 313v-47.3c0-5.2-4.2-9.5-9.5-9.5h-37.8c-5.2 0-9.5 4.2-9.5 9.5V313c0 5.2 4.2 9.5 9.5 9.5h37.8c5.2 0 9.5-4.3 9.5-9.5zm-19-9.5h-18.9v-28.4H614v28.4z"/><path d="M1068 76.6H954.5v-9.5c0-3.9-2.4-7.5-6.1-8.9L797.1 1.5c-2.1-.8-4.5-.8-6.6 0L639.1 58.2c-3.7 1.4-6.1 4.9-6.1 8.9v9.5H519.5c-5.2 0-9.5 4.2-9.5 9.5v37.8c0 5.2 4.2 9.5 9.5 9.5h9.5v255.4c0 5.2 4.2 9.5 9.5 9.5h47.3v28.4c0 5.2 4.2 9.5 9.5 9.5h416.1c5.2 0 9.5-4.2 9.5-9.5v-28.4h28.4c5.2 0 9.5-4.2 9.5-9.5V133.3h9.5c5.2 0 9.5-4.2 9.5-9.5V86c-.3-5.2-4.6-9.4-9.8-9.4zm-416.1-3l141.9-53.2 141.9 53.2v40.7H651.9V73.6zm331 305.6H623.5v-18.9h359.4v18.9zM843.1 133.3l7.7 30.7c1.1 4.2 4.8 7.2 9.2 7.2v132.4c-4.3 0-8.1 3-9.2 7.2l-7.7 30.7h-11.5v-85.1c0-5.2-4.2-9.5-9.5-9.5h-56.7c-5.2 0-9.5 4.2-9.5 9.5v85.1h-11.5l-7.7-30.7c-1.1-4.2-4.8-7.2-9.2-7.2V171.1c4.3 0 8.1-3 9.2-7.2l7.7-30.7h98.7zm-30.4 151.3h-37.8v-18.9h37.8v18.9zm-37.9 18.9h37.8v37.8h-37.8v-37.8zm-54.7-151.3h-42l-4.7-18.9h51.4l-4.7 18.9zm-11.5 18.9V190h-18.9v-18.9h18.9zM689.7 209h18.9v94.6h-18.9V209zm-11.5 113.5h42l4.7 18.9h-51.4l4.7-18.9zm184.4 18.9l4.7-18.9h42l4.7 18.9h-51.4zm16.3-37.9V209h18.9v94.6h-18.9zM897.8 190h-18.9v-18.9h18.9V190zm11.5-37.8h-42l-4.7-18.9H914l-4.7 18.9zM528.9 95.5h104v18.9h-104V95.5zm18.9 37.8h106.1l7.7 30.7c1.1 4.2 4.8 7.2 9.2 7.2v132.4c-4.3 0-8.1 3-9.2 7.2l-7.7 30.7H614c-5.2 0-9.5 4.2-9.5 9.5v28.4h-56.7V133.3zm454 283.7H604.6v-18.9h397.2V417zm37.8-37.8h-37.8v-28.4c0-5.2-4.2-9.5-9.5-9.5h-58.8l-7.7-30.7c-1.1-4.2-4.8-7.2-9.2-7.2V171.1c4.3 0 8.1-3 9.2-7.2l7.7-30.7h106.1v246zm19-264.8h-104V95.5h104v18.9z"/><path d="M964 227.9h37.8c5.2 0 9.5-4.2 9.5-9.5v-47.3c0-5.2-4.2-9.5-9.5-9.5H964c-5.2 0-9.5 4.2-9.5 9.5v47.3c0 5.2 4.3 9.5 9.5 9.5zm9.4-47.3h18.9V209h-18.9v-28.4zM964 322.5h37.8c5.2 0 9.5-4.2 9.5-9.5v-47.3c0-5.2-4.2-9.5-9.5-9.5H964c-5.2 0-9.5 4.2-9.5 9.5V313c0 5.2 4.3 9.5 9.5 9.5zm9.4-47.3h18.9v28.4h-18.9v-28.4zM264.4 336.5c16 0 29.9-4.9 40-15l32.4-32.4c10.4-10.4 15.7-25.7 15-43.8-.3-3.8-3.5-6.6-7.3-6.6-3.8.3-7 3.5-6.6 7.3.7 13.9-3.1 25.4-10.8 33.4-23.3 23.3-77.9 7.3-119.7-34.4S150 148.3 173 125.3c19.5-19.5 61.9-12.2 100.9 17.7 3.1 2.4 7.3 1.7 9.7-1.4 2.4-3.1 1.7-7.3-1.4-9.7-45.2-34.8-94.3-41.4-119.3-16.7l-32.4 32.4c-29.6 29.6-14.3 90.8 34.4 139.5 32 31.6 69.5 49.4 99.5 49.4zM140.9 229.7l21.9-21.9c2.4 4.9 5.6 10.1 8.7 15L149.2 245c-3.1-5.3-5.9-10.1-8.3-15.3zm-9.8-29.6l20.5-20.5c1.4 4.9 2.8 9.7 4.9 14.6l-21.6 21.6c-1.7-5.3-2.7-10.5-3.8-15.7zm48.7 34.1c3.8 5.2 8.4 10.1 12.9 15.3l-22.6 22.6c-4.5-4.9-9-10.1-12.9-15.3l22.6-22.6zm37.6 37.6l-22.6 22.6c-5.2-3.8-10.1-8-15-12.5l22.6-22.6c5.3 4.5 10.1 8.6 15 12.5zm26.4 17.4l-22.3 22.3c-5.2-2.4-10.1-5.2-15.3-8.7l22.3-22.3c5.6 3.1 10.5 5.9 15.3 8.7zm-8 27.8l21.6-21.6c4.9 2.1 9.7 3.5 14.6 4.9l-20.9 20.9c-2.4-.3-4.9-1-7.3-1.7-2.7-.8-5.5-1.8-8-2.5zm66.8-13.6l-8 8c-6.3 6.3-14.6 9.7-25.1 10.8l18.8-18.8c2.8.3 5.9.3 8.7.3 1.8.1 3.9.1 5.6-.3zM148.5 162.9l-18.4 18.4c1-9.7 4.2-18.1 10.4-24l8-8c-.3 4.5-.3 9 0 13.6z"/><path d="M440.8 185.8L375.7 120c-2.8-2.8-7-2.8-9.7 0-1.4 1.4-2.1 3.5-2.1 5.6v34.1h-22.3c-3.8 0-7 3.1-7 7 0 3.8 3.1 7 7 7h29.2c3.8 0 7-3.1 7-7V142l48.4 48.7-48.4 48.7v-23.3c0-3.8-3.1-7-7-7h-29.2c-3.8 0-7 3.1-7 7s3.1 7 7 7h22.3v34.8c0 .3 0 .3.3.7 0 .3 0 .3.3.7 0 .3.3.3.3.7 0 0 0 .3.3.3l1 1c.3.3.7.7 1 .7l.3.3c.3 0 .3.3.7.3s.3 0 .7.3c.3 0 .3 0 .7.3h2.8c.4 0 .3 0 .7-.3.3 0 .3 0 .7-.3.3 0 .3-.3.7-.3.3 0 .3 0 .7-.3l1-1 65.1-65.4c2.4-2.8 2.4-7.3-.4-9.8zM318 208.8h-14.6c-3.8 0-7 3.1-7 7 0 3.8 3.1 7 7 7H318c3.8 0 7-3.1 7-7-.1-3.9-3.2-7-7-7zM318 159.7h-14.6c-3.8 0-7 3.1-7 7 0 3.8 3.1 7 7 7H318c3.8 0 7-3.1 7-7-.1-3.8-3.2-7-7-7zM270.6 208.8h-6.3c-3.8 0-7 3.1-7 7 0 3.8 3.1 7 7 7h6.3c3.8 0 7-3.1 7-7s-3.1-7-7-7zM270.6 159.7h-6.3c-3.8 0-7 3.1-7 7 0 3.8 3.1 7 7 7h6.3c3.8 0 7-3.1 7-7 0-3.8-3.1-7-7-7zM226.1 208.8h-.7c-3.8 0-7 3.1-7 7 0 3.8 3.1 7 7 7h.7c3.8 0 7-3.1 7-7s-3.2-7-7-7zM226.1 159.7h-.7c-3.8 0-7 3.1-7 7 0 3.8 3.1 7 7 7h.7c3.8 0 7-3.1 7-7 0-3.8-3.2-7-7-7z"/></symbol>
    <symbol id="delivery" xmlns="http://www.w3.org/2000/svg" x="0" y="0" viewBox="0 0 1195.1 466" xml:space="preserve"><style>.delivery-st0{fill:none;stroke-width:20;stroke-miterlimit:10}</style><path d="M738.5 304c0-5.5-4.5-10-10-10h-63c-5.5 0-10 4.5-10 10v59c0 5.5 4.5 10 10 10h63c5.5 0 10-4.5 10-10v-59zm-63 10h43v39h-43v-39zM990.5 304c0-5.5-4.5-10-10-10h-63c-5.5 0-10 4.5-10 10v59c0 5.5 4.5 10 10 10h63c5.5 0 10-4.5 10-10v-59zm-63 10h43v39h-43v-39z"/><path d="M1057.4 155v-.3c0-.3-.1-.7-.2-1v-.2c-.2-.8-.6-1.6-1-2.3L1013.1 78c-5.4-9.2-15.2-14.9-25.8-15h-38.8V14.5c-.1-5.7-4.7-10.3-10.4-10.5H708.8c-5.7.2-10.2 4.8-10.4 10.5V63h-30.9c-9.8.1-19 5-24.6 13.1l-51.8 74.3c-.1.2-.3.4-.4.6 0 .1-.1.1-.1.2l-.3.6c0 .1-.1.1-.1.2-.1.2-.2.4-.2.6v.1c-.1.3-.2.7-.3 1.1 0 .1-.1.2-.1.4 0 .1-.1.3-.1.4 0 .2-.1.3-.1.5v43.3c0 16.5 13.4 29.8 29.8 29.8h3.2v227.5c0 5.5 4.2 10.5 9.7 10.5h382c5.7-.2 10.2-4.8 10.3-10.5V228h3.1c16.5.1 29.9-13.2 29.9-29.7v-42.1c.1-.4.1-.8 0-1.2zM718.5 24h210v47.9c0 .5-.1 1.1-.1 1.6s.1 1.1.1 1.6V110h-210V24zm-59.1 63.4c1.9-2.7 4.9-4.4 8.2-4.4h30.9v37.5c0 5.5 4.8 9.5 10.4 9.5h229.3c5.5 0 10.4-4 10.4-9.5V83h38.8c3.6.1 6.8 2 8.6 5.1l34 57.9H618.6l40.8-58.6zM869.5 446h-92V310h92v136zm135 0h-115V299.6c0-5.5-4.8-9.6-10.4-9.6H767.3c-5.2-.2-9.6 3.9-9.8 9.2V446h-115V228h362v218zm23-238H619.4c-5.4.1-9.9-4.2-9.9-9.6V166h428v32.2c0 5.4-4.4 9.8-9.8 9.8h-.2zM403 353.7c-26 0-47.1 21.1-47.1 47.1s21.1 47.1 47.1 47.1 47.1-21.1 47.1-47.1c.1-26-21-47.1-47.1-47.1zm0 80.8c-18.6 0-33.7-15.1-33.7-33.7s15.1-33.7 33.7-33.7 33.7 15.1 33.7 33.7c0 18.7-15.1 33.7-33.7 33.7z"/><path d="M403 380.7c-11.2 0-20.2 9-20.2 20.2s9 20.2 20.2 20.2 20.2-9 20.2-20.2-9-20.2-20.2-20.2zm0 26.9a6.7 6.7 0 116.7-6.7c.1 3.7-2.9 6.7-6.7 6.7zM133.7 353.7c-26 0-47.1 21.1-47.1 47.1s21.1 47.1 47.1 47.1 47.1-21.1 47.1-47.1-21.1-47.1-47.1-47.1zm0 80.8c-18.6 0-33.7-15.1-33.7-33.7s15.1-33.7 33.7-33.7 33.7 15.1 33.7 33.7c-.1 18.7-15.1 33.7-33.7 33.7z"/><path d="M133.7 380.7c-11.2 0-20.2 9-20.2 20.2s9 20.2 20.2 20.2 20.2-9 20.2-20.2-9.1-20.2-20.2-20.2zm0 26.9a6.7 6.7 0 110-13.4 6.7 6.7 0 010 13.4z"/><path d="M53.7 366.7c11.6-26.2 33.9-46 61.3-54.5 6.9-2.2 14-3.5 21.1-4 11.3-1 22.7 0 33.7 3l78.7 21 2 21.6H228v13.5h23.8l2.4 26.9h-46.5c-1.9-40.9-36.5-72.6-77.4-70.7S57.7 360 59.6 400.9h13.5c0-33.5 27.1-60.6 60.6-60.6s60.6 27.1 60.6 60.6c0 3.7 3 6.7 6.7 6.7h128c3.7 0 6.7-3 6.7-6.7 0-2.9-.5-5.9-1.3-8.7l18.3-35c8.9-11.2 21.8-18.6 36-20.6 6.3-.9 12.8-.7 19.1.6 6.2 1.2 12.2 3.5 17.6 6.7l14.5 8.8 6.7-11.6-14.6-8.8c-6.7-4.1-14.2-6.9-21.9-8.4-2.4-.5-4.8-.8-7.4-1.1V269c.1-13.2-4.2-26-12.1-36.5 3.3-.5 5.7-3.4 5.7-6.7v-33.7c0-3.7-3-6.7-6.7-6.7h-10.1c-10.9 0-20.4 7.5-22.9 18.1l-2.6-2.7c-1.3-1.3-3-2-4.8-2h-7.5c-3.8-14.8-18.8-23.7-33.6-20-1.9.5-3.7 1.2-5.5 2l-28.7 14.3-5.5-43.2 5.3-20.6h1.5c11.2 0 20.2-9 20.2-20.2v-37c0-16.7-13.5-30.2-30.2-30.2-15 0-27.7 10.9-29.9 25.7h-24v13.5h23.6v40.7l-5.3 21H228c-2.9 0-5.5 1.9-6.4 4.7l-33.7 107.7c-.1.2-.1.5 0 .7-.1.4-.3.8-.3 1.3v1c.1 4.2 1 8.4 2.7 12.3h-9.4v-94.1c0-3.7-3-6.7-6.7-6.7H66.3c-3.7 0-6.7 3-6.7 6.7v101c0 3.7 3 6.7 6.7 6.7h39.4c-2.3 4.8-2.9 10.3-1.6 15.5-27.9 10.6-50.5 32-62.6 59.3l-1.5 3.3 12.3 5.5 1.4-3zm221.5 6.7v21h-7.4l-5.8-64 6.7-4.6c8.4-5.7 11.3-16.8 6.7-25.9l-3.3-6.7h12.4l-9.3 80.2zm43 20.7h-29.6v-13.5H302c7.4 0 14.2 4 17.7 10.5l-1.5 3zm61.3-195.3h3.4V219h-3.4c-1.3 0-2.7-.3-3.9-.7l-2.4-1.5-.8-.7c-3.9-3.9-3.9-10.3 0-14.3 1.8-1.9 4.4-3 7.1-3zM360.8 320c5.7-17.1 8.6-35.1 8.6-53.1v-36.6c12.7 8.7 20.2 23.1 20.2 38.5v53.9h-2.8c-11.4 1.6-22.2 6-31.4 12.9l5.4-15.6zm-23.6-107.7h9.2l9.5 9.5v45.1c0 16.6-2.7 33.2-7.9 49l-18.7 55.9h.5l-3.2 6.1c-3-3.3-6.6-5.9-10.6-7.7l9.8-83.3c1.9-16.9-10.3-32-27.2-33.9-1.1-.1-2.2-.2-3.4-.2h-45.1l2.1-7.6c2.2.8 4.4 1.2 6.7 1.3 2.9 0 5.8-.6 8.5-1.9l69.8-32.3zM265 57.4c8.1-.2 15.2 5.5 16.8 13.5h-33c1.6-7.7 8.3-13.3 16.2-13.5zm-16.8 27h33.7v26.9c0 3.7-3 6.7-6.7 6.7h-26.9V84.4zm-1.5 47.1h13.1l-3.4 13.5h-13.1l3.4-13.5zm9 26.9l5.9 47.9c.3 2.2 1.6 4.1 3.5 5.1s4.3 1 6.2 0l37.4-18.5c4.3-2.1 9.4-1.9 13.5.6 2.9 1.8 5.1 4.7 6.1 7.9l-66.7 31c-3.4 1.6-7.4.1-8.9-3.3-.3-.6-.5-1.2-.6-1.9l-9.7-68.9h13.3zm-25.6 8.9l8.8 61.7c.4 2.2 1.1 4.3 2.1 6.3l-4.7 17.4h-32.9l26.7-85.4zm11.3 98.9h53.9c4.9 0 9.6 2.1 12.9 5.8 3.3 3.7 4.8 8.6 4.2 13.5l-9.6 81.8h-13.5l9.4-80c.2-1.9-.4-3.8-1.6-5.3-1.3-1.5-3.1-2.3-5.1-2.3h-70.8c-8.6 0-16.2-5.4-19.1-13.5h39.3zM199 286.4l8.4 5.6c1.1.7 2.4 1.1 3.7 1.1H257l1.1 2c.4.6.8 1.2 1.1 1.8l4.4 8.8c1.5 3 .6 6.7-2.2 8.6l-7.8 5.2-80.2-21.5c-12.5-3.3-25.5-4.4-38.4-3.4-6.1.6-12.1 1.6-18 3.2-.3-2.1 0-4.2 1-6.1 1.7-3.3 5.2-5.3 8.9-5.3H199zm-85.5-101H127V219h-13.5v-33.6zm-40.4 87.5v-87.5H100v40.4c0 3.7 3 6.7 6.7 6.7h26.9c3.7 0 6.7-3 6.7-6.7v-40.4h26.9v87.5H73.1z"/><path class="delivery-st0" d="M651.2 456.9H0M1195.1 456.9H543.9"/></symbol>
    <symbol id="nova-pochta" xmlns="http://www.w3.org/2000/svg" viewBox="0 0 210 75" stroke="initial" fill="#E01B22"><defs><style>.nova-pochta-cls-1{}</style></defs><title>i_nova_pochta</title><g id="Слой_2" data-name="Слой 2"><g id="svg4154"><g id="layer1"><g id="g4203"><path id="path3433" class="nova-pochta-cls-1" d="M91.93,12.72h4.42c1.61,0,2.42.8,2.42,2.59v6.36h8.65V15.31c0-1.8.8-2.59,2.61-2.59h4.22V16.9h-1.8l-.21.2V35h-4.83v-9H98.76v9H93.94V17.11a.2.2,0,0,0-.21-.2h-1.8Z"/><path id="path3435" class="nova-pochta-cls-1" d="M126.92,12.33H127v4.59l-.11,0a6.54,6.54,0,0,0-6.44,6.77c0,4,2.82,7.16,6.44,7.16l.11,0V35.4h-.11a11.65,11.65,0,0,1-11.67-11.73,11.45,11.45,0,0,1,11.67-11.35Z"/><path id="path3437" class="nova-pochta-cls-1" d="M127,12.34l2.24.22a11.35,11.35,0,0,1,9.32,11.12,11.66,11.66,0,0,1-9.32,11.49L127,35.4V30.81l2.46-.53a7.22,7.22,0,0,0,4.08-6.6,6.76,6.76,0,0,0-4.08-6.24L127,16.93Z"/><path id="path3439" class="nova-pochta-cls-1" d="M139.59,12.72h10V16.9h-3.12v4.58h3.12v4h-3.12v5c0,.2,0,.2.21.2h2.92V35H144c-1.61,0-2.41-.8-2.41-2.59V16.9h-2Z"/><path id="path3441" class="nova-pochta-cls-1" d="M149.55,12.72h.1c4.43,0,7,2.39,7,6a6.18,6.18,0,0,1-2,4.58,5.37,5.37,0,0,1,3,5c0,4.18-3.22,6.77-7.84,6.77h-.3V30.64h.5A2.43,2.43,0,0,0,152.68,28a2.43,2.43,0,0,0-2.63-2.59h-.5v-4h.1a2.15,2.15,0,0,0,2.21-2.39,2,2,0,0,0-2.21-2.19h-.1Z"/><path id="path3443" class="nova-pochta-cls-1" d="M167,12.72h2.41V19.1a3.8,3.8,0,0,0-.4,1.59l-1.61,4.58h2v4.17h-3.21L164.74,33a2.5,2.5,0,0,1-2.81,2h-3V30.64h1c.41,0,.41,0,.61-.2Z"/><path id="path3445" class="nova-pochta-cls-1" d="M169.36,12.72h2.42l6.44,17.71c.19.2.19.2.59.2h.81V35h-2.82A2.51,2.51,0,0,1,174,32.82l-1.4-3.39h-3.22V25.27h2l-1.6-4.58a3.62,3.62,0,0,0-.41-1.59Z"/><path id="path3447" class="nova-pochta-cls-1" d="M91.93,41.37h17.5A2.33,2.33,0,0,1,112,44V59.08c0,.19,0,.19.21.19h1.61v4.39h-4.22c-1.82,0-2.61-.8-2.61-2.59V45.76a.2.2,0,0,0-.21-.2h-8V63.66H93.94V45.55h-2Z"/><path id="path3449" class="nova-pochta-cls-1" d="M126.53,41h.1v4.59l-.1,0a6.54,6.54,0,0,0-6.44,6.77c0,4,2.81,7.16,6.44,7.16l.1,0V64h-.1a11.5,11.5,0,0,1-11.47-11.73A11.28,11.28,0,0,1,126.53,41Z"/><path id="path3451" class="nova-pochta-cls-1" d="M126.62,41l2.31.22a11.2,11.2,0,0,1,9.26,11.12,11.51,11.51,0,0,1-9.26,11.49l-2.31.23V59.46l2.55-.53a7.09,7.09,0,0,0,4-6.6,6.63,6.63,0,0,0-4-6.24l-2.55-.51Z"/><path id="path3453" class="nova-pochta-cls-1" d="M139.2,41.37h4.43c1.61,0,2.41.8,2.41,2.59V59.08c0,.19,0,.19.21.19h5.83V41.37h4.83v17.9h5.83c.21,0,.21,0,.21-.19V44c0-1.8.8-2.59,2.41-2.59h4.43v4.18H168a.2.2,0,0,0-.21.2V61.07c0,1.8-.8,2.59-2.41,2.59H143.82c-1.8,0-2.61-.8-2.61-2.59V45.76s0-.2-.19-.2H139.2Z"/><path id="path3455" class="nova-pochta-cls-1" d="M173.59,41.37h15.09c1.82,0,2.42.8,2.42,2.39v3.78h-4.43V45.76c0-.2,0-.2-.21-.2h-2.81V63.66h-4.84V45.55H176c-.21,0-.21,0-.21.2v1.78h-4.43V43.76C171.37,42.17,172,41.37,173.59,41.37Z"/><path id="path3457" class="nova-pochta-cls-1" d="M197.33,41.37h2.41v6.37a3.62,3.62,0,0,0-.4,1.59l-1.61,4.58h2v4.17h-3.22l-1.4,3.39a2.5,2.5,0,0,1-2.82,2.19h-3V59.28h1c.41,0,.41,0,.61-.19Z"/><path id="path3459" class="nova-pochta-cls-1" d="M199.74,41.37h2.41l6.45,17.71c.19.19.19.19.61.19h.8v4.39h-2.82a2.51,2.51,0,0,1-2.82-2.19L203,58.08h-3.22V53.92h2l-1.61-4.58a3.62,3.62,0,0,0-.4-1.59Z"/><path id="path3461" class="nova-pochta-cls-1" d="M60.92,22.2c.23-.07.53.07.83.47L75.43,36a1.7,1.7,0,0,1,0,2.59L61.76,52.12c-.3.4-.61.49-.83.37s-.38-.47-.38-1V23.07C60.55,22.58,60.69,22.28,60.92,22.2Z"/><path id="path3463" class="nova-pochta-cls-1" d="M37.53,0h1l.93.39L53.51,14.31c.61.8.4,1.4-.61,1.4H47.07a1.79,1.79,0,0,0-1.8,1.8V27.84a1.86,1.86,0,0,1-2,1.8H33a1.8,1.8,0,0,1-1.82-1.8V17.51a1.79,1.79,0,0,0-1.82-1.8H23.13c-1,0-1.21-.6-.61-1.4L36.61.39Z"/><path id="path3465" class="nova-pochta-cls-1" d="M15.48,21.9c.25.12.41.47.41,1v29c0,.51-.16.81-.41.9a1.13,1.13,0,0,1-1-.3L.6,38.59A1.7,1.7,0,0,1,.6,36L14.48,22.28C14.89,21.88,15.24,21.78,15.48,21.9Z"/><path id="path3467" class="nova-pochta-cls-1" d="M33,44.76H43.24a1.86,1.86,0,0,1,2,1.8V57.49a1.84,1.84,0,0,0,1.8,2H52.5c1,0,1.4.59.61,1.19L39.43,74.4A2,2,0,0,1,38,75a2,2,0,0,1-1.4-.6L22.94,60.67c-.81-.6-.41-1.19.59-1.19h5.83a1.84,1.84,0,0,0,1.82-2V46.55A1.8,1.8,0,0,1,33,44.76Z"/></g></g></g></g></symbol>
    <symbol id="shop" xmlns="http://www.w3.org/2000/svg" x="0" y="0" viewBox="0 0 1195.1 464" xml:space="preserve"><style>.shop-st0{fill:none;stroke-width:20;stroke-miterlimit:10}</style><path d="M572.5 302c0-5.5-4.5-10-10-10h-63c-5.5 0-10 4.5-10 10v59c0 5.5 4.5 10 10 10h63c5.5 0 10-4.5 10-10v-59zm-63 10h43v39h-43v-39zM824.5 302c0-5.5-4.5-10-10-10h-63c-5.5 0-10 4.5-10 10v59c0 5.5 4.5 10 10 10h63c5.5 0 10-4.5 10-10v-59zm-63 10h43v39h-43v-39z"/><path d="M891.4 153v-.3c0-.3-.1-.7-.2-1v-.2c-.2-.8-.6-1.6-1-2.3L847.1 76c-5.4-9.2-15.2-14.9-25.8-15h-38.8V12.5c-.1-5.7-4.7-10.3-10.4-10.5H542.8c-5.7.2-10.2 4.8-10.4 10.5V61h-30.9c-9.8.1-19 5-24.6 13.1l-51.8 74.3c-.1.2-.3.4-.4.6 0 .1-.1.1-.1.2l-.3.6c0 .1-.1.1-.1.2-.1.2-.2.4-.2.6v.1c-.1.3-.2.7-.3 1.1 0 .1-.1.2-.1.4 0 .1-.1.3-.1.4 0 .2-.1.3-.1.5v43.3c0 16.5 13.4 29.8 29.8 29.8h3.2v227.5c0 5.5 4.2 10.5 9.7 10.5h382c5.7-.2 10.2-4.8 10.3-10.5V226h3.1c16.5.1 29.9-13.2 29.9-29.7v-42.1c.1-.4.1-.8 0-1.2zM552.5 22h210v47.9c0 .5-.1 1.1-.1 1.6s.1 1.1.1 1.6V108h-210V22zm-59.1 63.4c1.9-2.7 4.9-4.4 8.2-4.4h30.9v37.5c0 5.5 4.8 9.5 10.4 9.5h229.3c5.5 0 10.4-4 10.4-9.5V81h38.8c3.6.1 6.8 2 8.6 5.1l34 57.9H452.6l40.8-58.6zM703.5 444h-92V308h92v136zm135 0h-115V297.6c0-5.5-4.8-9.6-10.4-9.6H601.3c-5.2-.2-9.6 3.9-9.8 9.2V444h-115V226h362v218zm23-238H453.4c-5.4.1-9.9-4.2-9.9-9.6V164h428v32.2c0 5.4-4.4 9.8-9.8 9.8h-.2z"/><path class="shop-st0" d="M651.2 454.9H0M1195.1 454.9H543.9"/><g><path d="M69.4 320.5c-4.3-2.5-6-8.1-3.3-12.4 2.5-4.5 8.1-6 12.4-3.5l15.9 9.3v-18.6c0-5.2 4.1-9.3 9.1-9.3 5.2 0 9.3 4.1 9.3 9.3v52.9l15.7-9.1c4.3-2.5 9.9-1 12.6 3.3 2.5 4.3 1 10.1-3.5 12.6l-24.8 14.5v19.2c11.8-1.4 22.5-6 31.6-12.8 10.5-7.9 18.6-18.8 23.4-31.2-13.9-18.6-21.9-41.8-21.9-66.8 0-3.3.2-6.8.4-10.1-5.4-4.3-11.4-7.9-18-10.3-7.6-3.1-15.9-4.8-24.8-4.8-18.8 0-36 7.6-48.4 20.1-12.2 12.4-19.8 29.4-19.8 48.4 0 18.8 7.6 36 19.8 48.4 10.3 10.1 24 17.2 39.3 19.2V335l-25-14.5zm-59.3 139c-5 0-9.1-4.1-9.1-9.1 0-5.2 4.1-9.3 9.1-9.3h84.4v-33.7c-20.3-2.1-38.5-11.4-52.1-25C26.7 366.7 17 345.2 17 321.2s9.7-45.7 25.4-61.4c15.5-15.7 37.2-25.4 61.2-25.4 11.2 0 21.7 2.1 31.6 6 5.2 2.1 10.1 4.5 14.9 7.6 5.2-19 15.3-36 28.9-49.6 20.3-20.3 48.4-32.9 79.4-32.9 31.2 0 59.3 12.6 79.6 32.9 20.5 20.5 33.1 48.6 33.1 79.6 0 31.2-12.6 59.3-33.1 79.6-18.2 18.4-42.8 30.4-70.3 32.7v50.9h110c5.2 0 9.3 4.1 9.3 9.3 0 5-4.1 9.1-9.3 9.1H10.1zm102.8-18.4h136.5v-50.9c-26.3-2.1-50-13.2-68.2-30.4-6 12.2-14.9 22.7-25.6 30.6-12.2 9.3-26.7 15.3-42.6 17l-.1 33.7zm180.4-136.3c4.3-2.7 9.9-1 12.6 3.3 2.5 4.3 1 9.9-3.5 12.4l-34.7 20.3v31c22.3-2.3 42.4-12.2 57.5-27.1 17-17.2 27.5-40.7 27.5-66.8 0-25.8-10.5-49.4-27.5-66.6-17.2-17-40.7-27.5-66.8-27.5-25.8 0-49.4 10.5-66.6 27.5-17 17.2-27.5 40.7-27.5 66.6 0 26.1 10.5 49.6 27.5 66.8 15.1 14.9 35.1 24.8 57.5 27.1v-76.9l-34.9-20.3c-4.3-2.5-5.8-8.1-3.3-12.4 2.7-4.5 8.3-6 12.6-3.5l25.6 14.9v-30c0-5.2 4.1-9.3 9.1-9.3 5.2 0 9.3 4.1 9.3 9.3v75.9l25.6-14.7z"/></g><g><path d="M1036.4 400h-82.8c-4.3 0-8.1-3.4-8.1-8.1 0-2.2.9-4 2.2-5.6L979 346h-17.7c-4.3 0-8.1-3.4-8.1-8.1 0-2.5 1.2-4.7 2.8-6.2l40-39.1h-17.1c-4.7 0-8.1-3.4-8.1-8.1 0-2.2.6-4 2.2-5.6l65.1-73.8c3.1-3.4 8.1-3.7 11.5-.9.3.3.3.6.6.9l65.4 74.1c2.8 3.4 2.5 8.4-.6 11.5-1.6 1.2-3.4 1.9-5.6 1.9h-17.1l40.3 39.7c3.4 3.1 3.4 8.1.3 11.5-1.6 1.6-3.7 2.2-5.9 2.2h-17.7l31.9 40.9c2.5 3.4 1.9 8.7-1.6 11.5-1.6.9-3.1 1.6-5 1.6h-82.5v44.3h22c4.3 0 8.1 3.7 8.1 8.1 0 4.7-3.7 8.1-8.1 8.1h-60.5c-4.3 0-8.1-3.4-8.1-8.1 0-4.3 3.7-8.1 8.1-8.1h22.3V400zm-66.3-16.2h148.5l-31.6-40.3c-1.2-1.6-1.9-3.4-1.9-5.6 0-4.3 3.4-8.1 8.1-8.1h14.6l-40-39.1c-1.9-1.6-2.8-3.7-2.8-6.2 0-4.3 3.4-8.1 8.1-8.1h18.9l-47.4-54-47.8 54h19.2c1.9 0 4 .9 5.6 2.5 3.1 3.1 3.1 8.4 0 11.5l-40.3 39.4h14.6c1.6 0 3.4.6 5 1.9 3.4 2.8 4 7.8 1.2 11.2l-32 40.9z"/></g></symbol>

</svg>

